<svg xmlns="http://www.w3.org/2000/svg" width="1536" height="1024" viewBox="0 0 1536 1024" version="1.1">
	<path d="M 423.375 238.750 C 423.066 239.713, 422.384 241.655, 421.861 243.066 C 421.247 244.723, 421.268 246.574, 421.921 248.291 C 422.476 249.753, 423.371 254.457, 423.909 258.745 C 424.446 263.032, 425.185 267.318, 425.550 268.270 C 426.554 270.887, 422.321 270.496, 417.500 267.526 C 412.708 264.574, 406.329 264.168, 404.481 266.696 C 401.942 270.167, 406.992 278.921, 414.644 284.315 C 417.040 286.003, 419 288.026, 419 288.810 C 419 289.595, 417.577 291.857, 415.838 293.838 C 411.765 298.477, 400.950 322.826, 396.002 338.500 C 395.308 340.700, 391.463 351.050, 387.458 361.500 C 369.776 407.638, 364.830 418.772, 351.698 442 C 344.249 455.174, 342.449 457.558, 332 468.077 C 324.023 476.106, 317.283 481.768, 310 486.555 C 304.225 490.351, 294.100 497.318, 287.500 502.036 C 280.900 506.755, 271.967 512.996, 267.650 515.906 C 254.426 524.818, 245.777 533.856, 237.953 546.942 C 234.152 553.299, 229.737 562.325, 228.141 567 C 226.546 571.675, 223.458 579.550, 221.279 584.500 C 219.100 589.450, 215.403 599.575, 213.063 607 C 207.416 624.918, 203.376 632.360, 188.635 652 C 176.212 668.552, 173.586 673, 176.236 673 C 178.478 673, 188.937 660.751, 200.936 644.074 C 208.080 634.144, 210.137 629.908, 215.541 614 C 222.351 593.954, 223.095 592, 223.920 592 C 225.199 592, 227.275 614.618, 226.558 620.732 C 224.676 636.776, 222.765 643.343, 214.009 663.868 C 204.186 686.896, 205.371 681.531, 200.407 725.446 C 199.536 733.149, 197.148 745.300, 194.512 755.446 C 192.075 764.826, 189.388 775.182, 188.540 778.460 C 187.693 781.738, 187 787.861, 187 792.067 L 187 799.714 160.750 799.607 C 132.178 799.491, 110.801 800.351, 87.500 802.557 C 79.250 803.338, 72.162 803.982, 71.750 803.988 C 71.338 803.995, 71 804.742, 71 805.649 C 71 807.466, 72.658 807.428, 120 804.503 C 131.825 803.772, 151.993 803.281, 164.817 803.411 C 187.313 803.639, 188.184 803.575, 189.567 801.601 C 190.355 800.476, 191 798.139, 191 796.408 C 191 791.747, 193.658 777.107, 196.975 763.500 C 202.322 741.569, 204.709 728.094, 206.984 707 C 209.224 686.238, 209.312 685.948, 221.758 658.500 C 224.501 652.450, 227.507 644.430, 228.438 640.678 C 231.106 629.919, 231.542 611.825, 229.539 594.915 L 227.812 580.330 232.060 569.415 C 239.333 550.732, 246.834 538.902, 257.152 529.844 C 263.441 524.323, 288.152 506.782, 305.500 495.525 C 330.093 479.566, 345.304 464.194, 354.505 446 C 356.034 442.975, 359.022 437.751, 361.144 434.390 C 366.613 425.730, 387.045 376.492, 398.446 344.500 C 407.816 318.207, 412.559 307.633, 420.175 296.057 C 422.868 291.963, 424.943 288.090, 424.786 287.451 C 424.629 286.811, 421.457 283.715, 417.738 280.571 C 410.786 274.694, 405.816 267.880, 409.649 269.482 C 421.453 274.416, 428.080 275.846, 429.696 273.809 C 430.791 272.428, 428.902 256.280, 426.981 250.601 C 425.706 246.833, 425.728 243.743, 427.027 244.176 C 427.591 244.364, 429.954 248.339, 432.277 253.009 C 435.037 258.559, 437.160 261.622, 438.405 261.853 C 440.195 262.185, 440.273 261.700, 439.679 253.853 C 439.307 248.950, 439.450 244.880, 440.023 244 C 441.711 241.408, 442.379 242.959, 447.672 261.772 C 449.001 266.498, 449.640 267.293, 453.827 269.440 C 464.018 274.664, 474.706 283.289, 486.455 295.769 C 493.080 302.806, 500.847 310.734, 503.716 313.387 C 509.523 318.756, 510.628 320.959, 509.020 323.962 C 507.516 326.773, 502.217 326.634, 491.403 323.500 C 486.658 322.125, 480.914 320.989, 478.638 320.976 C 476.362 320.962, 472.475 320.480, 470 319.904 C 466.765 319.152, 462.172 319.203, 453.665 320.086 C 438.590 321.650, 436.681 322.809, 432.316 333.038 C 428.795 341.290, 417.443 381.320, 415.360 392.830 C 414.631 396.862, 413.599 401.812, 413.067 403.830 C 412.535 405.849, 411.187 412.021, 410.072 417.547 C 402.078 457.165, 393.558 485.824, 379.613 520 C 374.520 532.484, 373.981 534.585, 372.463 547.909 C 371.560 555.834, 371.117 564.292, 371.478 566.705 C 372.440 573.119, 370.212 596.467, 367.156 612 C 364.653 624.723, 364.505 627.084, 364.593 653 C 364.660 673.027, 365.170 684.305, 366.470 694.500 C 367.452 702.200, 368.428 710.750, 368.639 713.500 C 370.535 738.167, 371.454 745.773, 374.041 758.206 C 378.405 779.176, 379.658 783.553, 384.147 793.500 C 390.721 808.070, 387.420 807.001, 425.806 806.991 C 460.245 806.982, 472.279 806.279, 494.736 802.959 C 502.306 801.841, 513.675 800.240, 520 799.402 C 535.523 797.346, 585.640 796.423, 602.500 797.882 C 626.107 799.925, 644.387 801.960, 652.500 803.450 C 662.585 805.302, 699.022 808.758, 717.722 809.637 C 735.226 810.460, 775.955 808.554, 797.500 805.906 C 810.445 804.314, 821.328 803.876, 854.500 803.610 C 901.964 803.230, 914.487 802.293, 922.792 798.503 C 934.907 792.975, 942.327 782.106, 942.439 769.725 C 942.499 763.039, 942.533 762.958, 945 763.471 C 946.375 763.756, 958.169 764.102, 971.209 764.240 L 994.917 764.489 995.535 769.995 C 997.026 783.277, 1002.550 794.728, 1009.713 799.385 C 1011.796 800.739, 1017.497 803.078, 1022.381 804.582 C 1030.779 807.169, 1031.671 807.254, 1038.758 806.152 C 1056.716 803.361, 1068.485 791.111, 1072.568 770.962 C 1075.442 756.776, 1072.922 741.076, 1066.249 731.594 C 1061.763 725.221, 1059.050 723.761, 1050.816 723.289 C 1043.601 722.875, 1043.431 722.922, 1038.524 726.709 C 1027.042 735.567, 1020.420 749.352, 1020.610 764 C 1020.811 779.494, 1027.006 790.118, 1038.083 793.962 C 1043.808 795.949, 1048 795.752, 1048 793.495 C 1048 792.795, 1046.328 791.909, 1044.285 791.526 C 1038.879 790.511, 1035.646 788.573, 1031.727 783.994 C 1019.538 769.754, 1025.052 742.104, 1042.547 729.739 C 1045.820 727.425, 1047.307 727.009, 1051.193 727.320 C 1057.156 727.797, 1060.232 729.834, 1063.557 735.507 C 1066.761 740.975, 1069.959 752.767, 1069.983 759.201 C 1070.027 771.442, 1064.040 786.081, 1056.052 793.264 C 1044.612 803.549, 1032.928 805.119, 1017.929 798.388 C 1010.673 795.131, 1004.871 788.970, 1002.164 781.647 C 999.724 775.047, 998.501 767, 999.939 767 C 1000.522 767, 1001 766.106, 1001 765.013 C 1001 763.703, 1002.147 762.548, 1004.369 761.619 C 1010.606 759.013, 1013.503 751.719, 1010.606 745.913 C 1009.019 742.732, 1009.046 742.644, 1015.468 729.839 C 1023.052 714.718, 1025.680 711.038, 1032.490 706.007 C 1041.867 699.080, 1045.714 697.569, 1054.069 697.533 C 1060.728 697.504, 1062.151 697.839, 1065.906 700.322 C 1070.757 703.529, 1072.323 706.571, 1079.015 725.786 C 1084.826 742.472, 1087.324 746.229, 1094.351 748.858 C 1099.723 750.868, 1100.736 750.899, 1130.470 749.953 C 1171.022 748.662, 1178.112 747.876, 1188.899 743.478 C 1201.430 738.369, 1204.132 735.286, 1209.094 720.431 C 1214.241 705.021, 1216.576 695.004, 1219.029 677.799 C 1221.056 663.582, 1220.949 660.967, 1218.428 663.060 C 1216.402 664.741, 1215.199 669.749, 1213.026 685.535 C 1211.625 695.717, 1210.019 702.579, 1207.175 710.535 C 1205.018 716.566, 1202.916 723.075, 1202.503 725 C 1201.249 730.839, 1198.338 733.779, 1189.644 737.987 C 1182.743 741.328, 1179.845 742.122, 1171.467 742.969 C 1156.275 744.506, 1101.850 745.981, 1097.388 744.977 C 1095.065 744.454, 1092.611 742.988, 1091.291 741.335 C 1089.001 738.469, 1084.739 728.464, 1080.509 716.027 C 1075.220 700.476, 1070.036 695.048, 1058.424 692.901 C 1047.929 690.961, 1036.313 695.070, 1027.127 703.971 C 1020.610 710.285, 1016.862 716.025, 1010.923 728.784 L 1005.823 739.741 1000.662 737.689 C 996.022 735.844, 992.316 735.558, 964 734.857 C 946.675 734.428, 930.925 733.860, 929 733.594 C 927.075 733.329, 914.925 732.875, 902 732.585 C 875.687 731.994, 866.268 731.230, 865.239 729.604 C 864.609 728.609, 858 713.766, 858 713.346 C 858 713.250, 860.146 714.079, 862.769 715.187 C 866.861 716.916, 868.131 717.042, 871.723 716.074 C 884.172 712.723, 890.559 697.088, 884.623 684.500 C 880.585 675.937, 874.522 672.013, 868.436 674.021 C 865.027 675.146, 862.283 677.617, 863.306 678.640 C 863.632 678.965, 865.325 678.734, 867.069 678.126 C 873.730 675.804, 881.226 683.076, 882.615 693.206 C 883.443 699.245, 881.682 704.194, 877.352 707.995 C 874.111 710.842, 873.331 711.067, 867.663 710.795 L 861.500 710.500 858.750 705.071 C 855.564 698.781, 855.269 693.828, 857.610 685.932 C 861.532 672.704, 867.570 665.735, 880.888 659.067 C 908.073 645.455, 931.680 641.204, 986 640.138 C 1003.875 639.787, 1024.125 639.837, 1031 640.248 C 1037.875 640.659, 1053.175 641.211, 1065 641.475 C 1076.825 641.738, 1087.788 642.188, 1089.362 642.474 C 1093.344 643.198, 1100.184 639.945, 1103.252 635.869 C 1106.976 630.920, 1116.627 611.153, 1119.504 602.581 C 1121.239 597.413, 1122 592.968, 1122 587.997 C 1122 581.413, 1121.766 580.612, 1119.053 577.899 L 1116.106 574.952 1063.114 575.348 C 1002.516 575.801, 1006.414 575.203, 999.880 585.047 C 996.491 590.151, 987.300 606.061, 979.086 621.039 C 972.320 633.379, 971.899 633.659, 958.314 634.895 C 935.732 636.950, 914.324 640.941, 900.713 645.634 C 881.654 652.206, 874.026 656.108, 866.525 663.125 C 859.449 669.745, 855.337 677.051, 852.477 688.088 C 850.118 697.194, 852.741 711.600, 859.025 724.049 C 860.677 727.322, 861.685 730.050, 861.264 730.111 C 860.844 730.172, 857.575 730.138, 854 730.036 C 845.908 729.806, 842.571 731.038, 839.954 735.225 C 836.535 740.695, 839.121 750.279, 844.976 753.839 C 846.560 754.802, 852.051 756.167, 857.178 756.872 C 873.261 759.084, 871.618 758.068, 872.885 766.585 C 873.496 770.696, 875.160 776.356, 876.583 779.163 C 879.694 785.303, 886.648 792.957, 891.479 795.559 C 893.416 796.602, 895 797.802, 895 798.227 C 895 799.151, 894.205 799.172, 849 799.487 C 824.406 799.659, 809.076 800.232, 799.099 801.353 C 791.179 802.243, 774.304 803.428, 761.599 803.986 C 748.895 804.545, 736.700 805.200, 734.500 805.443 C 725.767 806.409, 662.433 801.051, 645.199 797.890 C 639.534 796.850, 632.958 796, 630.586 796 C 628.214 796, 624.074 795.594, 621.386 795.098 C 612.997 793.549, 588.434 792.493, 565 792.673 C 542.318 792.848, 519.761 794.803, 492 799 C 471.268 802.134, 453.074 803.358, 437.333 802.678 C 429.271 802.330, 418.248 802.509, 412.690 803.080 C 399.500 804.433, 393.803 803.237, 391.675 798.668 C 389.067 793.066, 383.324 778.654, 381.607 773.402 C 378.790 764.786, 375.240 744.213, 374.030 729.500 C 373.396 721.800, 372.397 710.550, 371.809 704.500 C 371.221 698.450, 370.388 689.675, 369.957 685 C 369.527 680.325, 369.135 665.828, 369.087 652.784 C 369 629.175, 370.082 616.310, 373.541 599.822 C 374.312 596.149, 375.418 582.285, 375.999 569.012 C 377.197 541.689, 378.494 533.244, 383.009 523.396 C 384.748 519.603, 387.210 513.575, 388.482 510 C 389.753 506.425, 392.820 498.025, 395.297 491.333 C 397.774 484.641, 400.949 474.516, 402.352 468.833 C 408.719 443.038, 413.007 424.644, 415.019 414.500 C 419.023 394.302, 429.460 354.471, 434.708 339.361 C 438.852 327.427, 439.763 326.414, 447.038 325.654 C 461.698 324.122, 487.704 326.178, 495.649 329.498 C 497.627 330.324, 501.474 331, 504.199 331 C 510.660 331, 515 327.169, 515 321.465 C 515 318.041, 513.848 316.612, 498.954 301.545 C 490.128 292.617, 482.293 284.435, 481.541 283.362 C 479.398 280.303, 466.137 270.573, 459.317 267.056 C 455.917 265.302, 452.706 263.335, 452.183 262.684 C 451.659 262.033, 450.324 257.882, 449.217 253.461 C 446.390 242.176, 444.496 238, 442.206 238 C 439.025 238, 437.142 241.145, 436.811 247.012 L 436.500 252.500 433.272 246.322 C 429.085 238.308, 424.616 234.889, 423.375 238.750 M 452 289.309 C 452 290.029, 452.600 291.438, 453.333 292.441 C 454.607 294.183, 454.785 294.187, 457.333 292.517 C 461.328 289.900, 460.768 288, 456 288 C 453.371 288, 452 288.449, 452 289.309 M 1082.500 542.001 C 1049.630 542.768, 1027.060 545.408, 1019.209 549.405 C 1013.885 552.115, 1011.134 554.807, 1008.098 560.280 C 1004.607 566.571, 1004.713 566.647, 1017.750 567.241 C 1040.895 568.297, 1104.504 566.917, 1122.500 564.970 C 1131.989 563.943, 1206.553 564.271, 1258.729 565.569 L 1288.958 566.321 1292.284 571.911 C 1294.114 574.985, 1297.064 580.994, 1298.841 585.266 C 1301.726 592.203, 1310.128 610.396, 1321.810 635 C 1328.036 648.114, 1330.165 660.954, 1329.852 683.500 C 1329.292 723.733, 1329.176 721.684, 1332.173 724.461 C 1335.611 727.647, 1336.528 730.644, 1334.960 733.574 C 1333.074 737.100, 1327.903 739.034, 1318.611 739.689 C 1310.555 740.258, 1310.172 740.188, 1308.734 737.890 C 1307.911 736.576, 1306.977 732.575, 1306.660 729 C 1306.342 725.425, 1305.111 719.653, 1303.923 716.174 C 1299.296 702.611, 1290.607 696, 1277.410 696 C 1266.570 696, 1260.250 698.794, 1250.910 707.712 C 1241.962 716.257, 1238.335 722.741, 1234.010 737.929 C 1232.376 743.665, 1230.544 748.664, 1229.939 749.037 C 1229.334 749.411, 1223.813 750.517, 1217.670 751.494 C 1211.526 752.471, 1205.397 753.683, 1204.049 754.187 C 1202.701 754.691, 1194.826 755.754, 1186.549 756.549 C 1178.272 757.344, 1169.025 758.308, 1166 758.691 C 1162.975 759.074, 1141.638 759.413, 1118.584 759.444 C 1088.430 759.484, 1076.563 759.816, 1076.292 760.627 C 1075.634 762.595, 1078.597 762.955, 1100.291 763.548 C 1111.956 763.866, 1122.413 764.307, 1123.529 764.527 C 1124.910 764.799, 1125.631 765.817, 1125.786 767.714 C 1126.369 774.818, 1131.459 785.439, 1136.331 789.717 C 1144.687 797.054, 1156.514 797.975, 1168.240 792.203 C 1179.940 786.443, 1184.395 779.163, 1183.880 766.646 L 1183.627 760.500 1189.064 759.828 C 1192.054 759.459, 1201.250 758.234, 1209.500 757.107 C 1236.485 753.421, 1236.054 753.614, 1237.549 744.500 C 1240.684 725.390, 1248.417 712.779, 1261.482 705.473 C 1270.129 700.637, 1276.466 699.338, 1283.609 700.937 C 1294.495 703.373, 1300.919 713.491, 1302.922 731.359 C 1303.901 740.083, 1305.718 743.574, 1309.716 744.405 C 1311.247 744.724, 1316.863 744.361, 1322.196 743.599 C 1333.589 741.970, 1337.371 739.833, 1339.106 734.040 C 1340.538 729.260, 1339.798 726.106, 1336.250 721.871 C 1333.554 718.652, 1333.504 718.349, 1333.694 706.544 C 1333.801 699.920, 1334.072 691.125, 1334.296 687 C 1334.829 677.196, 1333.428 658.567, 1331.401 648.500 C 1330.187 642.470, 1327.506 635.821, 1320.517 621.500 C 1315.417 611.050, 1310.143 600.025, 1308.796 597 C 1299.628 576.403, 1297.130 571.518, 1294.202 568.452 L 1290.904 565 1294.405 565 C 1299.739 565, 1303.160 563.114, 1302.417 560.583 C 1300.988 555.715, 1296.744 550.775, 1292.308 548.812 C 1285.229 545.681, 1265.951 544.437, 1208.500 543.405 C 1193.650 543.139, 1172.876 542.488, 1162.336 541.960 C 1142.665 540.975, 1126.114 540.983, 1082.500 542.001 M 1095.500 547.018 C 1050.579 547.816, 1028.090 549.921, 1019.834 554.099 C 1016.755 555.658, 1012 560.624, 1012 562.282 C 1012 563.728, 1110.020 561.462, 1131.500 559.519 C 1134.250 559.270, 1165.750 559.599, 1201.500 560.250 C 1286.618 561.800, 1294.601 561.801, 1296.138 560.263 C 1297.969 558.431, 1293.791 554.419, 1288.106 552.552 C 1282.494 550.709, 1255.368 549.313, 1210 548.533 C 1192.125 548.226, 1171.425 547.746, 1164 547.467 C 1156.575 547.188, 1146.450 546.825, 1141.500 546.660 C 1136.550 546.495, 1115.850 546.656, 1095.500 547.018 M 1164.473 577.014 C 1137.121 578.046, 1135.731 579.133, 1124.015 608.646 C 1119.898 619.016, 1113.459 633.466, 1109.706 640.759 C 1101.988 655.755, 1102.149 657.023, 1111.212 652.609 C 1114.120 651.193, 1118.650 649.391, 1121.278 648.606 L 1126.057 647.179 1128.534 652.066 C 1131.318 657.562, 1135.011 660, 1140.549 660 C 1145.961 660, 1150.644 657.318, 1153.744 652.444 C 1156.087 648.760, 1157.099 648.037, 1160.500 647.620 C 1166.692 646.860, 1200.747 644.962, 1207.823 644.982 L 1214.145 645 1213.419 615.250 C 1213.019 598.888, 1212.400 584.405, 1212.042 583.068 C 1210.753 578.244, 1207.547 577.078, 1194.500 576.690 C 1187.900 576.494, 1174.388 576.640, 1164.473 577.014 M 1223.253 578.110 C 1222.286 579.106, 1222.146 585.699, 1222.630 607.447 C 1223.182 632.290, 1223.481 636.040, 1225.236 640.219 C 1226.327 642.814, 1227.767 645.392, 1228.436 645.947 C 1229.253 646.625, 1240.656 646.644, 1263.077 646.007 C 1300.662 644.938, 1299.096 645.312, 1300.487 637.079 C 1301.862 628.940, 1287.167 592.451, 1279.114 584.010 C 1277.127 581.926, 1273.700 579.666, 1271.500 578.988 C 1265.567 577.158, 1224.895 576.418, 1223.253 578.110 M 1060.815 579.978 L 1010.130 580.500 1007.031 583.469 C 1005.327 585.102, 1001.864 590.052, 999.336 594.469 C 986.064 617.654, 979.526 628.739, 977.856 630.885 C 976.835 632.197, 976 633.592, 976 633.985 C 976 634.378, 990.063 634.974, 1007.250 635.309 C 1024.438 635.643, 1049.075 636.417, 1062 637.028 C 1088.103 638.262, 1095.135 637.845, 1097.881 634.898 C 1100.292 632.309, 1115.502 601.594, 1116.895 596.500 C 1118.684 589.957, 1118.300 583.300, 1116 581 C 1114.900 579.900, 1113.438 579.102, 1112.750 579.228 C 1112.063 579.353, 1088.692 579.690, 1060.815 579.978 M 1158.703 582.056 C 1149.229 582.554, 1143.353 583.292, 1142.369 584.109 C 1139.435 586.544, 1134.906 594.012, 1132.522 600.346 C 1129.735 607.751, 1120.502 628.388, 1115.452 638.500 C 1113.529 642.350, 1111.966 645.886, 1111.978 646.358 C 1111.990 646.831, 1113.237 646.875, 1114.750 646.458 C 1116.263 646.041, 1119.258 645.429, 1121.406 645.100 C 1125.190 644.519, 1125.376 644.301, 1127.406 638.075 C 1128.988 633.223, 1130.399 630.932, 1133.175 628.711 C 1142.619 621.157, 1155.413 626.647, 1157.527 639.161 L 1158.222 643.276 1176.361 642.530 C 1186.338 642.120, 1197.650 641.496, 1201.500 641.142 L 1208.500 640.500 1208.204 616 C 1208.041 602.525, 1207.585 589.250, 1207.192 586.500 L 1206.477 581.500 1189.989 581.390 C 1180.920 581.329, 1166.841 581.629, 1158.703 582.056 M 1227.912 581.389 C 1227.588 581.730, 1227.501 593.595, 1227.718 607.755 C 1228.021 627.520, 1228.467 634.487, 1229.639 637.750 L 1231.165 642 1251.833 641.868 C 1263.200 641.796, 1277.675 641.459, 1284 641.118 L 1295.500 640.500 1295.809 637.831 C 1296.329 633.333, 1291.256 615.493, 1286.828 606.252 C 1275.171 581.919, 1275.139 581.899, 1247.505 581.229 C 1237.052 580.975, 1228.235 581.047, 1227.912 581.389 M 333.690 601.750 C 333.455 602.163, 332.940 604.284, 332.546 606.465 C 331.614 611.615, 329.478 615.674, 327.001 616.999 C 325.914 617.581, 318.423 618.343, 310.355 618.691 L 295.687 619.325 296.281 613.912 C 296.608 610.936, 297.197 606.977, 297.590 605.116 C 298.151 602.455, 298.006 601.831, 296.908 602.197 C 295.436 602.688, 293.397 608.935, 287.506 631 C 283.915 644.450, 281.371 652.492, 274.686 671.520 C 268.246 689.851, 266.797 697.777, 266.825 714.500 C 266.847 727.688, 267.279 731.600, 270.399 746.884 C 276.012 774.378, 284.344 796.746, 291.086 802.419 C 293.822 804.721, 295.014 805, 302.126 805 C 307.317 805, 311.129 804.468, 313.050 803.474 L 316 801.949 316.015 789.724 C 316.024 782.169, 316.624 775.018, 317.585 771 C 322.615 749.977, 325.928 729.448, 326.945 713 C 327.540 703.375, 328.461 690.325, 328.990 684 C 329.520 677.675, 330.426 660.575, 331.003 646 C 331.580 631.425, 332.297 617.979, 332.596 616.120 C 333.540 610.251, 334.997 614.095, 335.988 625.073 C 336.506 630.808, 337.558 637.750, 338.327 640.500 C 339.096 643.250, 341.215 650.675, 343.036 657 C 348.025 674.330, 348.023 676.400, 343.009 685.484 C 336.543 697.197, 334.209 704.119, 330.526 722.500 C 323.943 755.360, 322.575 780.311, 326.524 795.500 C 327.980 801.100, 332.142 807.191, 333.550 805.783 C 333.886 805.448, 333.033 800.971, 331.655 795.836 C 328.038 782.359, 327.469 771.980, 329.466 755.934 C 331.820 737.014, 335.762 715.894, 338.692 706.500 C 341.774 696.616, 346.857 686, 348.507 686 C 349.767 686, 351.246 691.218, 359.424 724.500 C 365.091 747.565, 366.582 755.639, 368.013 771 C 370.056 792.925, 374.182 807, 378.568 807 C 380.530 807, 380.389 805.917, 377.505 798.819 C 375.795 794.610, 374.364 787.616, 372.958 776.589 C 370.592 758.034, 367.475 739.705, 365.461 732.500 C 364.692 729.750, 363.348 723.900, 362.473 719.500 C 361.599 715.100, 358.703 702.950, 356.037 692.500 C 353.371 682.050, 350.667 670.800, 350.027 667.500 C 349.388 664.200, 347.121 656.065, 344.990 649.423 C 342.533 641.765, 340.892 634.445, 340.505 629.423 C 339.026 610.181, 335.966 597.759, 333.690 601.750 M 284.387 608.250 C 279.128 616.998, 268.592 632.379, 262.982 639.500 C 257.348 646.652, 247 662.392, 247 663.810 C 247 664.362, 244.733 666.712, 241.961 669.032 C 236.441 673.655, 225.989 688.021, 221.193 697.580 C 214.156 711.607, 203.930 750.682, 200.789 775.549 C 199.847 783.008, 199.868 786.556, 200.889 792.725 C 201.596 797.001, 202.608 800.950, 203.136 801.500 C 204.262 802.672, 216.318 802.809, 227 801.771 C 231.770 801.308, 240.976 801.627, 252.289 802.649 C 269.181 804.174, 273.273 804.023, 269.992 801.995 C 264.155 798.388, 234.964 796.163, 218.946 798.104 C 205.794 799.698, 205.625 799.552, 205.162 786.145 C 204.623 770.537, 210.170 743.546, 220.078 713.576 C 225.097 698.390, 227.867 693.100, 236 683.167 C 245.704 671.314, 246 671.255, 246 681.181 C 246 695.727, 248.742 707.934, 258.729 737.853 C 265.671 758.648, 266.320 761.331, 268.043 776.353 C 270.056 793.909, 272.252 803, 274.480 803 C 277.008 803, 277.242 800.947, 275.657 792.667 C 274.797 788.175, 273.403 779.941, 272.559 774.370 C 270.734 762.318, 264.973 739.901, 261.542 731.500 C 254.615 714.538, 252.071 702.373, 251.295 682.488 C 250.802 669.880, 250.965 666.969, 252.305 664.377 C 255.047 659.074, 262.003 649.021, 270.872 637.544 C 278.446 627.743, 288.593 610.496, 290.462 604.250 C 291.856 599.589, 288.113 602.054, 284.387 608.250 M 324.891 622.001 C 324.006 622.519, 316.658 623.292, 308.562 623.721 L 293.842 624.500 290.513 637.500 C 288.683 644.650, 284.943 656.575, 282.202 664 C 272.281 690.875, 271.583 694.238, 271.792 714.144 C 271.962 730.312, 274.412 748.638, 278.533 764.577 C 281.269 775.161, 290.494 795.327, 294.086 798.578 C 295.703 800.041, 298.072 800.579, 304.102 800.853 L 312 801.212 312 792.330 C 312 781.208, 313.449 769.449, 316.067 759.325 C 317.993 751.875, 320.088 740.797, 321.423 731 C 322.109 725.969, 324.551 687.508, 326.027 658.500 C 326.559 648.050, 327.444 635.675, 327.994 631 C 328.544 626.325, 328.996 622.163, 328.997 621.750 C 329.001 620.726, 326.846 620.858, 324.891 622.001 M 1135.875 632.439 C 1131.950 635.106, 1129 640.279, 1129 644.493 C 1129 648.975, 1135.910 655.978, 1140.349 655.993 C 1146.444 656.015, 1154 648.080, 1154 641.656 C 1154 637.766, 1151.150 633.646, 1146.961 631.480 C 1142.908 629.384, 1140.001 629.636, 1135.875 632.439 M 1078 651.405 C 1073.147 652.502, 1051.819 658.687, 1034.500 664.021 C 1023.140 667.520, 1011.070 673.167, 1006.780 676.988 C 1004.426 679.085, 1002.836 681.144, 1003.247 681.564 C 1003.657 681.983, 1009.282 679.825, 1015.747 676.769 C 1022.211 673.712, 1030.425 670.273, 1034 669.126 C 1042.634 666.356, 1070.476 658.244, 1080.500 655.578 C 1085.924 654.136, 1088.500 652.976, 1088.500 651.975 C 1088.500 650.044, 1084.893 649.848, 1078 651.405 M 906.500 674.892 C 896.738 677.524, 892.021 681.855, 900.250 680.631 C 911.839 678.907, 927.788 678.801, 938.280 680.379 C 950.569 682.227, 956 682.428, 956 681.035 C 956 679.051, 951.180 677.599, 940.515 676.369 C 925.106 674.592, 910.039 673.938, 906.500 674.892 M 972.846 680.750 C 962.784 689.820, 961.066 705.310, 969.105 714.466 C 974.697 720.835, 981.468 721.341, 988.915 715.947 C 993.831 712.385, 996.992 706.482, 997.710 699.516 C 998.372 693.107, 996.795 687.975, 992.746 683.363 C 986.117 675.814, 979.313 674.920, 972.846 680.750 M 977.030 682.279 C 973.998 683.814, 970.363 689.057, 968.864 694.059 C 965.083 706.679, 976.079 719.114, 985.696 713.096 C 995.075 707.225, 996.200 693.499, 988.008 684.888 C 984.075 680.753, 981.333 680.102, 977.030 682.279 M 901.750 693.055 C 900.788 693.630, 900 694.752, 900 695.550 C 900 696.767, 903.249 697.008, 920.250 697.051 C 931.388 697.080, 943.650 697.471, 947.500 697.920 C 958.439 699.198, 959.237 696.148, 948.500 694.099 C 940.839 692.637, 903.836 691.811, 901.750 693.055 M 896.406 708.152 C 895.379 709.814, 898.624 711.829, 903.385 712.485 C 921.219 714.944, 956 716.728, 956 715.185 C 956 712.998, 952.191 712.122, 937.944 711.033 C 930 710.426, 918.344 709.270, 912.042 708.465 C 898.238 706.700, 897.315 706.682, 896.406 708.152 M 1269.123 725.981 C 1264.403 727.125, 1261.225 729.700, 1255.881 736.710 C 1249.865 744.601, 1247 753.087, 1247 763.013 C 1247 776.576, 1251.769 786.788, 1259.792 790.406 C 1264.449 792.506, 1268.052 791.972, 1265.990 789.488 C 1265.311 788.670, 1264.223 788, 1263.574 788 C 1261.954 788, 1256.570 782.187, 1254.641 778.355 C 1248.190 765.542, 1252.830 744.864, 1264.588 734.026 C 1268.688 730.247, 1269.327 730, 1275.025 730 C 1280.272 730, 1281.421 730.351, 1283.496 732.591 C 1284.817 734.015, 1286.933 738.178, 1288.198 741.841 C 1291.195 750.514, 1291.407 764.891, 1288.653 772.796 C 1286.555 778.822, 1277.938 788.853, 1272.746 791.315 C 1250.911 801.669, 1235.261 792.681, 1230.413 767 C 1228.216 755.362, 1228.107 755.071, 1226.802 757.395 C 1225.362 759.961, 1226.400 769.909, 1228.974 778.208 C 1231.826 787.405, 1236.118 792.809, 1243.500 796.500 L 1249.500 799.500 1265.500 799.189 C 1276.183 798.982, 1287.482 797.993, 1299.500 796.215 C 1316.908 793.638, 1319.090 793.545, 1365.844 793.391 C 1392.433 793.303, 1420.108 792.723, 1427.344 792.101 C 1444.495 790.628, 1457.275 788.902, 1458.395 787.906 C 1460.413 786.112, 1452.926 785.858, 1433.265 787.056 C 1421.844 787.751, 1392.700 788.405, 1368.500 788.508 C 1327.237 788.683, 1323.380 788.854, 1306.500 791.252 C 1282.976 794.593, 1278 795.172, 1278 794.570 C 1278 794.296, 1280.644 791.468, 1283.876 788.286 C 1291.777 780.505, 1294.249 774.149, 1294.787 760.231 C 1295.226 748.865, 1293.158 739.499, 1288.776 732.996 C 1284.760 727.037, 1276.673 724.150, 1269.123 725.981 M 844.750 736.017 C 842.266 737.554, 842.530 743.005, 845.287 747.102 C 847.430 750.286, 848.168 750.606, 857.037 752.179 C 862.242 753.103, 872.800 754.359, 880.500 754.970 C 888.200 755.581, 899.900 756.531, 906.500 757.081 C 923.221 758.473, 987.223 760.136, 994.500 759.367 C 1005.329 758.223, 1009.395 754.274, 1006.609 747.607 C 1003.948 741.239, 997.993 740.147, 962.808 739.575 C 949.777 739.363, 938.695 738.929, 938.180 738.612 C 937.666 738.294, 924.028 737.540, 907.873 736.936 C 856.065 735, 846.617 734.862, 844.750 736.017 M 875.715 759.619 C 874.649 760.684, 877.269 771.104, 879.994 776.639 C 885.965 788.768, 897.894 797, 909.500 797 C 920.239 797, 931.417 790.074, 935.885 780.652 C 938.365 775.423, 940.177 763.969, 938.602 763.485 C 937.996 763.298, 933 762.922, 927.500 762.648 C 913.044 761.930, 884.119 760.090, 879.813 759.614 C 877.785 759.390, 875.941 759.392, 875.715 759.619 M 1170.500 762.049 C 1161.650 762.810, 1140.213 763.894, 1132.639 763.964 L 1128.777 764 1129.457 767.750 C 1130.429 773.110, 1134.658 782.020, 1137.807 785.342 C 1144.539 792.444, 1156.930 794.638, 1165.503 790.244 C 1170.208 787.833, 1176.550 781.734, 1178.747 777.508 C 1180.462 774.208, 1181.791 760.919, 1180.384 761.138 C 1179.898 761.213, 1175.450 761.623, 1170.500 762.049" stroke="none" fill="#000000" fill-rule="evenodd"/>
</svg>