<svg xmlns="http://www.w3.org/2000/svg" width="1536" height="1024" viewBox="0 0 1536 1024" version="1.1">
	<path d="M 884.008 38.974 C 883.188 39.492, 881.500 39.662, 880.257 39.350 C 878.655 38.948, 877.410 39.470, 875.982 41.141 C 873.551 43.986, 873.750 49.146, 876.565 56.276 C 878.394 60.910, 878.397 61.205, 876.640 66.150 C 875.645 68.953, 874.591 73.554, 874.298 76.374 L 873.767 81.500 867.093 81.500 L 860.418 81.500 862.838 77.172 C 865.832 71.818, 865.899 64.863, 863.018 58.539 C 860.823 53.721, 860.541 49.686, 861.969 43.528 C 863.095 38.670, 862.429 37.759, 859.969 40.793 C 856.878 44.606, 856.528 50.743, 859.014 57.542 C 862.657 67.506, 862.650 70.121, 858.960 76.570 C 856.244 81.316, 854.871 82.609, 850.486 84.548 C 841.799 88.390, 834.814 93.394, 827.887 100.736 C 817.840 111.387, 813.278 119.517, 795.580 158.313 C 794.781 160.066, 788.886 173.200, 782.481 187.500 C 759.829 238.072, 749.027 255.885, 723.249 285.175 C 711.110 298.969, 690.514 317.287, 665.500 336.539 C 650.702 347.928, 639.590 359.919, 630 374.849 C 610.429 405.318, 607.675 409.210, 599.827 417.501 C 582.941 435.340, 567.591 444.477, 535.432 455.831 C 500.693 468.096, 486.621 474.641, 471.115 485.745 C 460.040 493.675, 435.352 517.750, 428.809 527 C 413.868 548.122, 408.009 567.277, 403.542 609.601 C 401.567 628.321, 398.629 642.999, 394.463 654.968 C 389.934 667.979, 384.535 677.107, 373.448 690.500 C 358.897 708.077, 353.050 723.201, 349.479 752.500 C 347.543 768.387, 347.304 769.428, 344.377 774.750 L 342.040 779 344.727 779 C 348.322 779, 358.415 768.594, 362.671 760.500 C 366.427 753.358, 371.198 738.784, 377.484 715.250 C 383.264 693.614, 387.975 679.301, 393.531 666.500 C 401.465 648.216, 403.923 637.081, 407.988 601 C 411.778 567.354, 417.291 550.050, 430.174 531.362 C 438.507 519.275, 439.315 519.264, 435.498 531.291 C 428.285 554.019, 427.120 563.971, 426.043 612 C 425.331 643.777, 424.772 653.748, 423.182 663 C 417.929 693.564, 409.375 717.362, 397.994 733.075 C 395.375 736.691, 392.503 741.061, 391.611 742.785 C 389.285 747.283, 387.275 757.104, 386.552 767.500 C 383.929 805.233, 377.906 831.317, 365.770 857.500 C 351.144 889.056, 347.193 907.627, 349.971 931.748 C 351.368 943.876, 350.448 952.953, 346.839 962.666 C 345.312 966.776, 344.283 968.054, 341.810 968.916 C 339.625 969.678, 288.392 970, 169.351 970 C 0.200 970, 0 970.002, 0 972.017 C 0 974.032, 0.105 974.033, 171.750 973.767 C 319.487 973.537, 343.804 973.298, 345.676 972.056 C 347.520 970.832, 348.282 970.816, 350.676 971.954 C 352.285 972.719, 358.233 973.475, 364.500 973.711 C 373.739 974.059, 376.060 973.834, 379 972.304 C 383.389 970.019, 383.300 967.545, 378.598 961.118 C 371.252 951.079, 369.206 940.671, 371.446 924.743 C 376.640 887.808, 389.903 836.038, 402.566 803.275 C 408.652 787.529, 421.678 762.453, 429.289 751.833 C 437.183 740.819, 460.199 716.866, 461.571 718.238 C 462.427 719.094, 459.883 739.660, 457.458 751.489 C 453.487 770.858, 453.855 773.514, 463.216 793 C 470.112 807.354, 472.237 812.523, 475.569 823.047 C 478.798 833.243, 485.285 860.377, 490.023 883.500 C 492.165 893.950, 495.054 906.423, 496.444 911.217 C 503.170 934.409, 520.402 974.718, 525.087 978.216 C 531.907 983.307, 559.757 982.054, 560.830 976.607 C 561.011 975.686, 557.133 968.735, 552.210 961.162 C 525.061 919.387, 510.250 882.023, 500.517 830.756 C 492.062 786.223, 492.953 771.584, 507.381 718 C 524.332 655.041, 532.775 636.984, 548.810 629.396 C 554.494 626.706, 554.527 626.703, 580.500 626.512 C 607.277 626.315, 617.915 625.118, 625.794 621.413 C 627.606 620.561, 630.283 619.782, 631.744 619.682 C 634.246 619.511, 634.512 619.935, 636.326 627 C 637.923 633.220, 638.273 638.339, 638.376 657 C 638.497 679.021, 638.410 680.043, 634.289 705 C 628.421 740.530, 626.335 757.764, 624.547 785.500 C 623.696 798.700, 622.531 816.700, 621.957 825.500 C 620.446 848.655, 616.671 881.313, 611.846 912.980 C 609.430 928.831, 609.731 932.219, 614.594 943.875 C 620.038 956.922, 621.083 960.703, 621.938 970.429 C 622.588 977.821, 623.097 979.660, 624.893 981.114 C 630.011 985.259, 648.928 986.176, 655.793 982.613 C 662.814 978.969, 662.251 975.595, 652.442 962.540 C 640.848 947.108, 639.473 941.702, 639.584 912 C 639.728 873.704, 642.762 838.430, 648.414 809.350 C 650.355 799.367, 652.409 785.867, 652.981 779.350 C 656.172 742.946, 658.104 731.507, 667.511 693.349 C 673.437 669.311, 683.961 634.653, 685.938 632.666 C 686.394 632.208, 689.632 635.746, 693.134 640.528 C 702.715 653.614, 724.893 683.080, 734.508 695.500 C 759.020 727.161, 765.648 738.042, 770.390 754.407 C 774.989 770.276, 778.188 798.270, 780.515 843 C 782.157 874.567, 782.700 879.313, 786.665 896.738 C 788.072 902.919, 788.952 909.057, 788.620 910.378 C 787.592 914.473, 785.045 914.450, 780.802 910.306 C 776.149 905.763, 774.214 906.393, 772.225 913.099 C 770.254 919.745, 771.533 928.062, 776.009 937.691 C 782.249 951.119, 792.982 964.711, 796.331 963.427 C 798.751 962.498, 801.775 951.070, 806.632 924.500 C 810.049 905.802, 810.455 882.112, 807.660 864.500 C 806.700 858.450, 804.834 846.750, 803.514 838.500 C 799.311 812.235, 798.870 806.943, 799.182 786.500 C 799.786 746.851, 799.590 742.052, 797.042 734.129 C 794.594 726.517, 791.452 721.369, 777.100 701.455 C 759.177 676.586, 740.533 642.492, 733.651 622 C 727.713 604.320, 726.653 597.609, 726.611 577.413 L 726.573 559.327 730.906 552.156 C 742.995 532.148, 743.865 517.954, 734.342 496.085 C 727.209 479.703, 726.586 477.047, 726.586 463 C 726.585 451.287, 726.786 449.996, 729.773 442.500 C 733.672 432.714, 739.775 423.775, 755.822 404.343 C 772.506 384.141, 783.516 368.152, 791.932 351.909 C 808.830 319.293, 821.240 280.579, 837.420 210 C 840.819 195.175, 845.616 183.561, 852.603 173.245 C 858.824 164.059, 864.776 158.472, 873 154.095 C 881.329 149.664, 884.599 149.383, 893.694 152.317 C 908.047 156.947, 910.941 157.287, 929.452 156.516 C 945.745 155.837, 947.026 155.918, 951.523 157.907 C 954.149 159.069, 958.282 161.849, 960.709 164.086 C 963.135 166.322, 966.654 168.793, 968.528 169.576 C 975.692 172.569, 984.708 170.712, 988.939 165.371 C 990.922 162.867, 991.136 161.753, 990.612 156.657 C 989.354 144.421, 984.220 138.283, 964.588 125.536 C 950.745 116.548, 941.685 107.857, 936.609 98.692 C 934.535 94.948, 931.499 90.360, 929.863 88.497 C 926.323 84.464, 916.772 78.277, 907.832 74.223 C 899.381 70.391, 896.647 67.006, 897.597 61.547 C 898.694 55.237, 898.214 47.315, 896.538 44.074 C 893.813 38.803, 888.012 36.442, 884.008 38.974 M 884.850 45 C 883.718 48.247, 881.049 49.096, 880.921 46.250 C 880.858 44.856, 880.726 44.805, 880.271 46 C 879.957 46.825, 879.347 47.733, 878.916 48.018 C 878.485 48.303, 879.090 51.269, 880.260 54.609 L 882.388 60.682 879.694 68.609 C 876.498 78.013, 876.357 80.676, 878.910 83.436 C 881.074 85.775, 882.683 97.590, 881.150 99.876 C 880.375 101.030, 879.488 100.970, 875.655 99.506 C 870.092 97.382, 864.573 97.995, 854.674 101.840 C 842.553 106.547, 833.535 116.467, 822.714 137 C 816.247 149.270, 814.737 152.653, 795.944 197 C 774.032 248.704, 767.988 261.238, 756.161 279.500 C 746.543 294.350, 723.833 318.225, 707 331.183 C 695.137 340.315, 663.567 360.708, 644.500 371.556 C 633.533 377.796, 629.594 381.469, 624.049 390.625 C 607.186 418.471, 589.334 435.578, 564.186 447.988 C 558.859 450.617, 544.825 456.254, 533 460.514 C 494.139 474.516, 477.248 483.417, 461.394 498.248 C 444.084 514.441, 433.377 539.295, 431.338 568.017 C 430.117 585.218, 433.192 598.548, 449.940 648.659 C 461.462 683.132, 463.521 691.068, 465.197 707.469 C 465.496 710.403, 465.602 710.335, 474.053 701.817 C 494.634 681.071, 515.609 648.723, 524.385 624.190 C 527.546 615.353, 527.585 614.024, 524.884 607 C 514.734 580.603, 512.361 569.029, 514.201 554.894 C 515.007 548.710, 515.021 544.769, 514.254 540.894 C 512.736 533.232, 513.792 532.001, 518.406 536.052 C 526.980 543.580, 531.788 554.152, 534.569 571.595 C 536.224 581.973, 536.232 583.285, 534.702 592.583 C 533.805 598.037, 532.513 604.407, 531.832 606.739 C 530.712 610.571, 530.790 611.243, 532.651 613.739 C 537.122 619.739, 555.894 623.305, 583 623.305 C 603.017 623.304, 616.666 621.389, 626.975 617.136 L 633.451 614.464 634.671 602.254 C 637.095 578.002, 642.387 555.144, 646.522 551.075 C 647.979 549.641, 648.243 549.662, 649.470 551.316 C 651.968 554.684, 654.445 567.221, 654.444 576.500 C 654.443 590.083, 650.926 598.690, 638.415 615.737 C 636.894 617.809, 636.894 618.277, 638.405 622.055 C 641.108 628.810, 643.278 650.881, 642.578 664.500 C 641.980 676.151, 641.477 680.040, 637.017 707.500 C 631.937 738.788, 628.544 769.364, 627.030 797.500 C 624.598 842.700, 622.381 864.195, 614.955 914.589 C 612.714 929.790, 612.993 931.643, 620.055 948.500 C 623.510 956.748, 624.369 960.124, 624.958 967.770 C 625.779 978.421, 626.454 979.342, 634.500 980.793 C 644.754 982.642, 657 980.605, 657 977.050 C 657 976.063, 653.647 970.671, 649.549 965.068 C 645.452 959.465, 641.224 952.542, 640.155 949.685 C 635.415 937.015, 634.741 917.996, 637.491 874.500 C 639.604 841.082, 641.244 826.939, 645.493 805.500 C 647.832 793.703, 649.566 780.965, 650.525 768.536 C 652.069 748.542, 652.604 744.745, 656.592 725.500 C 667.144 674.579, 682.104 626.638, 696.177 598.647 C 701.856 587.352, 709.749 574.862, 718.115 563.929 C 733.441 543.902, 737.273 535.480, 737.189 522 C 737.132 512.653, 735.609 506.956, 729.479 493.143 C 724.493 481.910, 723.078 475.390, 723.036 463.460 C 722.962 442.728, 729.117 430.144, 752.932 402.343 C 779.926 370.830, 795.109 343.531, 809.479 300.666 C 817.511 276.710, 824.266 252.325, 830.026 226.500 C 835.642 201.317, 838.289 192.596, 843.988 180.500 C 849.979 167.783, 860.162 156.740, 871.269 150.916 C 874.566 149.187, 874.903 148.688, 873.961 146.927 C 873.081 145.282, 873.288 144.588, 875.093 143.126 C 878.516 140.354, 877.033 136.345, 871.713 133.989 C 864.296 130.703, 861.537 126.859, 863.908 123.115 C 864.468 122.231, 865.670 121.951, 867.230 122.343 C 873.572 123.935, 880.333 132.875, 880.333 139.670 L 880.333 143.852 887.417 146.511 C 903.286 152.467, 902.978 152.421, 927.500 152.462 C 952.669 152.504, 953.723 152.713, 960.500 159.013 C 966.880 164.943, 971.001 167, 976.505 167 C 982.344 167, 987 164.296, 987 160.906 C 987 158.825, 984.968 157.737, 978.500 156.355 C 975.991 155.819, 974.500 154.941, 974.500 154 C 974.500 152, 982.524 151.365, 984.743 153.189 C 987.820 155.719, 985.232 147.989, 981.461 143.387 C 977.665 138.755, 976.122 137.579, 959.829 126.911 C 947.200 118.642, 939.148 110.421, 932.659 99.170 C 927.173 89.660, 922.129 85.402, 908.620 78.876 C 903.736 76.516, 898.431 73.277, 896.832 71.678 C 893.936 68.782, 893.925 68.724, 894.212 57.967 C 894.485 47.712, 894.377 47.032, 892.076 44.582 C 888.803 41.097, 886.157 41.250, 884.850 45 M 858.427 86.027 C 850.896 87.521, 841.418 92.838, 833.911 99.780 C 821.728 111.047, 816.382 120.526, 793.464 171.500 C 768.291 227.490, 762.712 238.396, 749.216 258 C 731.214 284.150, 712.957 303.023, 680.500 329.036 C 656.595 348.195, 648.384 355.647, 641.576 364.366 C 637.959 368.998, 635 373.016, 635 373.296 C 635 373.576, 637.898 371.937, 641.439 369.653 C 644.980 367.369, 653.112 362.350, 659.510 358.500 C 676.121 348.504, 699.341 333.022, 707.402 326.568 C 724.894 312.563, 742.493 293.614, 753.696 276.723 C 764.062 261.091, 772.097 244.452, 792.433 196.500 C 819.128 133.553, 824.395 123.248, 836.629 110.034 C 845.975 99.939, 864.913 92.394, 874.212 95.061 C 876.013 95.577, 877.652 96, 877.855 96 C 879.150 96, 876.461 88.182, 874.681 86.772 C 872.321 84.902, 865.640 84.596, 858.427 86.027 M 906.992 99.974 C 899.190 100.981, 894.158 102.837, 892.911 105.166 C 891.336 108.109, 892.190 108.289, 897.620 106.157 C 900.304 105.103, 905.315 103.917, 908.757 103.522 C 914.254 102.889, 914.939 102.996, 914.400 104.401 C 914.062 105.280, 913.423 106, 912.979 106 C 911.702 106, 906 115.817, 906 118.015 C 906 119.107, 906.575 120, 907.277 120 C 909.108 120, 913 117.097, 913 115.731 C 913 115.096, 914.789 112.753, 916.976 110.525 C 920.568 106.864, 920.893 106.114, 920.345 102.737 C 919.769 99.188, 919.556 99.007, 916.119 99.131 C 914.129 99.203, 910.022 99.582, 906.992 99.974 M 868.733 128.124 C 869.412 128.808, 870.219 129.115, 870.526 128.807 C 870.834 128.499, 870.279 127.940, 869.293 127.564 C 867.868 127.022, 867.753 127.136, 868.733 128.124 M 517.877 548 C 517.706 551.575, 517.598 559.450, 517.636 565.500 C 517.701 575.784, 517.981 577.282, 521.934 588.500 C 524.260 595.100, 526.404 601.288, 526.698 602.250 C 528.412 607.855, 530.957 600.088, 531.694 587 C 532.599 570.941, 528.254 553.074, 521.577 545.397 L 518.188 541.500 517.877 548 M 645.647 561.244 C 644.809 563.585, 643.679 567.075, 643.135 569 C 642.002 573.015, 638.419 596.586, 637.586 605.500 L 637.025 611.500 639.560 608.500 C 640.954 606.850, 643.959 601.690, 646.238 597.033 C 649.860 589.632, 650.437 587.505, 650.824 580.133 C 651.261 571.806, 649.596 558.487, 647.995 557.497 C 647.541 557.217, 646.485 558.903, 645.647 561.244 M 717.726 570.250 C 714.728 574.237, 710.347 580.650, 707.991 584.500 C 699.171 598.912, 687.161 625.726, 688.399 628.243 C 689.443 630.368, 719.581 670.700, 736.933 693.196 C 764.423 728.833, 769.940 738.137, 774.475 756.500 C 777.843 770.137, 781.740 803.120, 782.983 828.500 C 785.089 871.519, 785.853 878.766, 790.150 896.500 C 792.262 905.213, 792.235 911.301, 790.070 914.750 C 787.397 919.007, 783.914 919.067, 779.776 914.930 C 775.894 911.047, 775.036 912.157, 775.015 921.089 C 775.002 926.958, 775.530 928.760, 779.857 937.589 C 782.528 943.040, 786.357 949.460, 788.367 951.856 C 790.376 954.252, 792.406 956.903, 792.878 957.747 C 795.088 961.696, 797.297 955.186, 801.965 930.959 C 808.489 897.097, 808.325 886.938, 800.500 840.500 C 795.855 812.929, 794.531 793.915, 795.871 774 C 796.518 764.375, 796.797 754.475, 796.491 752 C 794.211 733.569, 791.200 725.933, 780.914 712.500 C 760.574 685.937, 737.976 645.813, 730.225 622.497 C 724.889 606.445, 723.589 598.128, 723.542 579.752 C 723.519 570.541, 723.427 563.003, 723.339 563.002 C 723.250 563.001, 720.724 566.263, 717.726 570.250 M 428.727 624.701 C 428.196 655.874, 427.273 664.212, 422.048 685 C 417.011 705.044, 409.162 723.922, 402.171 732.809 C 393.968 743.236, 390.782 752.751, 389.551 770.500 C 388.142 790.817, 386.206 804.421, 382.370 820.956 C 379.318 834.112, 376.908 840.780, 367.632 861.720 C 354.896 890.472, 351.133 905.688, 352.613 922.449 C 353.933 937.404, 353.538 952.571, 351.645 959.644 C 350.740 963.024, 350 966.214, 350 966.734 C 350 967.623, 354.368 969.232, 359.984 970.413 C 364.410 971.343, 377.132 969.820, 377.719 968.289 C 378.015 967.518, 376.810 964.870, 375.040 962.406 C 366.497 950.510, 365.368 935.413, 370.861 906.500 C 381.446 850.782, 395.039 806.949, 411.639 775 C 423.407 752.351, 428.473 745.410, 445.945 728 L 461.500 712.500 461.287 706.122 C 460.838 692.709, 458.393 683.605, 443.554 640.091 C 439.914 629.417, 435.320 615.017, 433.345 608.091 C 431.371 601.166, 429.638 595.365, 429.495 595.201 C 429.352 595.036, 429.006 608.311, 428.727 624.701 M 527.037 626.750 C 516.934 653.488, 499.121 680.729, 476.800 703.579 L 465 715.658 464.980 721.079 C 464.955 727.886, 463.702 736.828, 460.382 753.881 C 457.132 770.574, 457.596 773.598, 466.040 790.785 C 477.618 814.349, 482.806 831.915, 493.126 882.500 C 499.605 914.255, 505.220 930.692, 521.537 965.665 C 524.151 971.267, 526.724 975.346, 528.156 976.157 C 531.044 977.794, 552.635 978.013, 555.298 976.433 C 556.938 975.460, 556.550 974.536, 550.888 965.933 C 527.779 930.820, 512.296 895.787, 502.967 857.500 C 492.164 813.164, 489.466 778.687, 494.827 753.494 C 498.018 738.503, 510.882 691.534, 516.493 674.388 C 525.519 646.809, 534.130 632.785, 545.537 627.089 L 550.284 624.718 542.968 622.860 C 538.944 621.838, 534.621 620.326, 533.361 619.501 C 532.101 618.675, 530.907 618, 530.707 618 C 530.507 618, 528.856 621.938, 527.037 626.750 M 377.763 690.750 C 375.354 693.913, 371.723 698.671, 369.693 701.324 C 361.440 712.115, 355.841 728.105, 353.874 746.500 C 353.286 752, 352.169 759.833, 351.392 763.906 C 350.615 767.980, 350.124 771.458, 350.301 771.634 C 350.478 771.811, 352.231 769.828, 354.196 767.228 C 361.691 757.311, 364.947 748.643, 374.428 713.357 C 376.961 703.929, 379.902 693.691, 380.963 690.607 C 382.024 687.523, 382.724 685, 382.518 685 C 382.312 685, 380.172 687.587, 377.763 690.750" stroke="none" fill="#000000" fill-rule="evenodd"/>
</svg>