<svg xmlns="http://www.w3.org/2000/svg" width="1536" height="1024" viewBox="0 0 1536 1024" version="1.1">
	<path d="M 727.500 271.631 C 687.255 274.789, 655.819 276.992, 644.500 277.450 C 636.800 277.761, 625.100 278.472, 618.500 279.031 C 611.900 279.590, 593.450 280.953, 577.500 282.060 C 534.126 285.070, 492.903 291.379, 482.940 296.531 C 478.469 298.843, 474 303.064, 474 304.974 C 474 305.962, 475.113 307.499, 476.474 308.391 C 478.621 309.798, 484.715 310.090, 522.724 310.609 C 567.773 311.224, 589.788 310.636, 656 307.051 C 676.075 305.965, 702.228 304.766, 714.119 304.387 L 735.737 303.699 752.119 307.361 C 761.128 309.375, 776.600 312.805, 786.500 314.984 C 796.400 317.163, 816.200 321.682, 830.500 325.026 C 883.966 337.529, 911.601 342.414, 916.428 340.215 C 919.979 338.597, 919.831 334.677, 916.077 330.923 C 911.990 326.836, 905 327.024, 905 331.220 C 905 332.858, 904.495 333.139, 902.250 332.750 C 892.022 330.975, 846.158 321.287, 830 317.489 C 802.786 311.092, 778.770 305.674, 763.500 302.487 C 756.350 300.994, 747.800 299.103, 744.500 298.283 C 741.200 297.464, 734.675 296.851, 730 296.921 C 715.169 297.144, 633.830 300.638, 624.201 301.466 C 593.984 304.064, 541.551 305.281, 504.287 304.249 C 485.074 303.717, 480.896 303.040, 488.226 301.647 C 490.027 301.305, 493.975 300.327, 497 299.473 C 504.306 297.411, 541.504 292.292, 558.745 290.975 C 604.513 287.479, 628.050 285.805, 656.500 284.019 C 674.100 282.915, 696.375 281.291, 706 280.412 C 717.811 279.333, 730.651 278.926, 745.500 279.161 L 767.500 279.509 784 285.340 C 836.922 304.042, 890.286 321, 896.217 321 C 901.604 321, 880.017 312.005, 853.246 303.094 C 840.186 298.747, 818.250 290.922, 804.500 285.706 C 766.968 271.466, 768.271 271.800, 749 271.498 C 739.925 271.356, 730.250 271.416, 727.500 271.631 M 483.901 313.069 C 482.836 313.734, 482.762 314.369, 483.592 315.722 C 485.813 319.338, 492.817 321.435, 516.194 325.486 C 524.276 326.887, 534.851 329.183, 539.694 330.589 C 544.537 331.995, 565.375 336.903, 586 341.496 C 606.625 346.088, 630.025 351.416, 638 353.335 C 645.975 355.254, 655.875 357.397, 660 358.097 C 670.304 359.845, 694.300 359.654, 713.500 357.671 C 722.300 356.762, 732.242 355.761, 735.594 355.446 L 741.688 354.874 742.344 365.593 C 743.363 382.237, 743.117 432.624, 741.961 444.144 C 739.958 464.107, 735.431 483.266, 730.345 493.307 C 728.899 496.163, 725.475 500.637, 722.736 503.250 C 718.441 507.348, 717.190 508, 713.622 508 C 711.348 508, 707.984 507.569, 706.148 507.042 C 697.188 504.473, 644.514 500.236, 611 499.389 C 583.204 498.686, 535.934 501.251, 442 508.556 C 404.925 511.440, 398.440 512.231, 388 515.140 C 376.474 518.353, 366.220 524.526, 367.382 527.552 C 368.133 529.510, 366.483 529.767, 352.046 529.941 C 339.597 530.091, 326.855 531.713, 319.292 534.110 C 314.604 535.597, 306.207 545.318, 302.265 553.824 C 297.965 563.104, 297.273 570.652, 299.317 586 C 300.159 592.325, 300.849 603.125, 300.849 610 C 300.849 616.875, 301.163 627.127, 301.546 632.781 L 302.243 643.063 297.872 642.291 C 286.600 640.303, 283.249 642.402, 281.034 652.840 C 278.805 663.344, 281.482 674.703, 287.349 679.641 C 290.432 682.234, 290.650 682.265, 301.873 681.712 C 318.868 680.875, 317.652 679.468, 318.254 700.677 C 318.815 720.501, 321.431 733.760, 326.479 742.374 C 331.649 751.196, 347.362 762.332, 359.970 766.109 C 362.222 766.784, 363.712 767.598, 363.282 767.918 C 362.852 768.238, 351.250 768.230, 337.500 767.901 C 309.993 767.242, 210.537 767.790, 207.750 768.616 C 206.788 768.901, 206 769.554, 206 770.067 C 206 770.603, 212.711 771.022, 221.750 771.051 C 230.412 771.078, 240.200 771.289, 243.500 771.518 C 257.657 772.501, 362.939 774.205, 371.356 773.587 C 389.468 772.258, 402.053 768.126, 414.551 759.405 C 425.897 751.488, 431.473 743.290, 435.065 729.244 C 437.481 719.801, 437.521 714.866, 435.208 712.008 C 432.629 708.823, 431.577 710.583, 428.619 723.040 C 425.372 736.713, 423.806 740.224, 418.355 746.051 C 413.163 751.602, 406.118 754.407, 394.778 755.438 C 387.059 756.141, 383.969 755.158, 374.480 748.983 C 362.224 741.006, 355.198 727.618, 352.659 707.400 C 351.736 700.049, 351.004 697.413, 349.660 696.589 C 342.365 692.118, 344.342 719.488, 352.398 734.507 C 355.707 740.675, 359.239 745.931, 361.661 748.293 C 367.786 754.264, 374.328 758.876, 378.364 760.068 C 385.146 762.070, 384.070 763.340, 376.250 762.561 C 361.139 761.055, 350.452 756.221, 340.305 746.302 C 334.441 740.569, 332.936 738.375, 330.730 732.346 C 327.069 722.337, 324.951 710.529, 324.291 696.458 C 323.595 681.610, 324.096 680.730, 332.830 681.450 C 335.949 681.708, 347.950 682.174, 359.500 682.486 C 371.050 682.799, 393.775 683.920, 410 684.979 C 447.335 687.414, 495.749 689.041, 530.500 689.028 C 545.350 689.022, 563.762 689.469, 571.416 690.021 C 587.934 691.212, 590.838 690.338, 594.710 683.015 C 597.252 678.210, 597.880 668.025, 595.903 663.686 C 594.409 660.408, 588.948 658, 583.007 658 C 580.298 658, 574.801 657.532, 570.791 656.961 C 566.781 656.389, 550.450 655.535, 534.500 655.062 C 518.550 654.589, 488.625 653.030, 468 651.597 C 406.054 647.293, 399.649 646.927, 370 646.009 C 339.157 645.053, 306.963 643.296, 306.194 642.527 C 305.931 642.264, 306.297 641.347, 307.008 640.490 C 308.324 638.905, 308.216 634.061, 306.174 603 C 305.758 596.675, 305.436 585.200, 305.459 577.500 L 305.500 563.500 309.739 554.831 C 312.071 550.063, 315.127 545.259, 316.531 544.155 C 320.048 541.388, 335.169 538.015, 348.980 536.916 C 376.778 534.704, 498.169 532.767, 528.500 534.052 C 548.002 534.878, 581.028 538.409, 583.968 539.983 C 586.871 541.536, 587.999 546.527, 588.017 557.899 C 588.059 583.694, 593.527 613.217, 600.120 623.257 C 603.465 628.349, 608.996 632.207, 611.977 631.528 C 616.555 630.484, 624.155 621.036, 632 606.639 C 640.562 590.927, 646.149 584.092, 655.315 578.121 C 663.167 573.005, 670.523 571.526, 683.475 572.459 C 697.666 573.482, 704.521 577.698, 714.054 591.272 C 717.845 596.670, 719.945 601.461, 724.405 614.889 C 727.482 624.154, 730 632.487, 730 633.407 C 730 635.617, 733.439 642.290, 735.429 643.941 C 736.296 644.661, 739.816 645.855, 743.252 646.596 C 753.487 648.801, 771.520 645.277, 800.500 635.406 C 806.266 633.442, 809.569 631.620, 812.327 628.881 C 816.043 625.191, 816.136 624.928, 815.529 619.791 C 814.652 612.364, 816.640 568.774, 818.476 555.189 C 820.020 543.768, 819.580 539.979, 816.715 540.015 C 811.556 540.080, 811 544.276, 811 583.118 C 811 602.166, 810.715 619.176, 810.366 620.918 C 809.951 622.996, 808.777 624.581, 806.958 625.522 C 803.581 627.268, 779.348 635.337, 770.928 637.519 C 762.235 639.771, 743.828 641.896, 741.839 640.877 C 738.673 639.253, 736.179 633.412, 731.087 615.685 C 723.800 590.325, 718.430 580.762, 707.185 573.126 C 698.492 567.222, 694.553 565.893, 684 565.303 C 672.544 564.661, 664.774 565.981, 656.094 570.043 C 643.566 575.906, 637.355 582.785, 626.097 603.266 C 618.930 616.305, 615.673 620.657, 611.086 623.321 L 607.950 625.142 605.812 620.321 C 597.839 602.350, 591.785 554.025, 595.796 540.379 C 596.971 536.382, 597.180 536.226, 602.754 535.159 C 605.914 534.554, 613.450 533.579, 619.500 532.993 C 625.550 532.406, 631.175 531.730, 632 531.489 C 634.027 530.897, 647.959 529.377, 668.500 527.506 C 690.971 525.459, 696.898 524.445, 706.784 520.956 C 716.816 517.415, 718.471 516.569, 723.126 512.595 C 734.751 502.671, 741.884 486.766, 746.711 460 C 749.225 446.058, 749.340 443.787, 749.688 401 C 749.887 376.525, 750.249 355.938, 750.493 355.250 C 750.783 354.434, 753.120 353.989, 757.219 353.970 C 760.673 353.953, 770.250 353.274, 778.500 352.461 C 786.750 351.648, 800.025 350.538, 808 349.993 C 815.975 349.448, 828.350 348.440, 835.500 347.751 C 842.650 347.063, 853.563 346.641, 859.750 346.812 L 871 347.125 871.009 381.312 C 871.027 446.137, 872.121 493.210, 873.683 496.294 C 876.262 501.390, 880.505 503.158, 889 502.678 C 897.114 502.221, 911.135 500.297, 917.408 498.782 C 925.345 496.865, 929.691 488.746, 925.037 484.533 C 921.615 481.437, 905.875 478.831, 895.250 479.603 C 890.163 479.972, 886 480.596, 886 480.989 C 886 481.382, 889.938 481.975, 894.750 482.305 C 899.563 482.636, 905.075 483.451, 907 484.117 C 908.925 484.782, 912.413 485.989, 914.750 486.799 C 917.087 487.609, 919 488.684, 919 489.187 C 919 490.742, 912.924 492.721, 903 494.399 C 888.704 496.815, 882.631 496.880, 880.157 494.641 C 878.158 492.833, 878.100 491.785, 878.018 455.641 C 877.878 394.319, 876.477 349.077, 874.577 344.529 L 872.970 340.683 852.235 341.341 C 832.095 341.981, 811.432 343.410, 778.500 346.442 C 769.700 347.252, 759.575 348.046, 756 348.207 L 749.500 348.500 749 341 C 748.505 333.571, 747.727 331, 745.976 331 C 744.273 331, 742.950 334.960, 742.225 342.231 L 741.500 349.500 717 351.290 C 689.690 353.286, 666.272 353, 654 350.523 C 649.875 349.691, 640.425 347.456, 633 345.558 C 619.697 342.157, 581.747 333.603, 548.500 326.511 C 539.150 324.516, 525.425 321.370, 518 319.520 C 510.575 317.669, 501.800 315.832, 498.500 315.437 C 495.200 315.043, 490.880 314.152, 488.901 313.458 C 486.733 312.697, 484.745 312.543, 483.901 313.069 M 643 398.102 C 630.075 398.567, 610.725 399.336, 600 399.812 C 589.275 400.287, 569.925 400.752, 557 400.845 C 518.618 401.120, 511.437 402.222, 503.704 409.029 C 495.513 416.239, 490.925 425.298, 477.446 460.873 C 473.409 471.529, 467.832 484.187, 465.053 489.002 C 462.274 493.818, 460 498.236, 460 498.820 C 460 500.876, 462.212 501.209, 465.837 499.701 C 471.191 497.472, 501.377 493.766, 537.500 490.901 C 552.940 489.677, 601.165 489.254, 660 489.826 C 694.914 490.165, 701.638 489.631, 707.380 486.064 C 712.975 482.588, 717.841 476.643, 721.345 469 C 725.636 459.642, 732.861 431.617, 733.663 421.220 C 734.388 411.817, 732.388 403.653, 728.452 399.954 L 725.842 397.500 696.171 397.379 C 679.852 397.312, 655.925 397.638, 643 398.102 M 610.500 406.091 C 590.150 407.097, 560.900 408.331, 545.500 408.834 C 528.873 409.377, 516.325 410.218, 514.606 410.904 C 503.801 415.220, 497.156 425.542, 484.520 457.647 C 479.140 471.316, 473.632 484.448, 472.281 486.829 C 470.929 489.209, 470.046 491.379, 470.318 491.651 C 470.589 491.922, 481.541 490.999, 494.656 489.600 C 533.819 485.420, 571.234 483.740, 615.500 484.175 C 636.950 484.386, 656.300 484.307, 658.500 484.001 L 662.500 483.444 658.500 481.372 C 626.347 464.718, 622.114 463, 613.239 463 C 605.291 463, 596 470.631, 596 477.161 C 596 479.756, 593.778 483, 592 483 C 590.526 483, 587.999 479.935, 588.024 478.179 C 588.086 473.939, 590.326 467.387, 593.083 463.379 C 597.172 457.436, 602.210 455, 610.411 455 C 623.191 455, 631.036 457.818, 645.072 467.449 C 649.236 470.307, 655.536 474.014, 659.072 475.687 C 662.607 477.360, 667.300 480.181, 669.500 481.954 L 673.500 485.179 684 484.700 C 695.996 484.153, 703.739 481.700, 709.520 476.615 C 712.255 474.209, 713.832 471.326, 716.446 463.947 C 721.400 449.962, 726 426.245, 726 414.686 L 726 405.250 722.875 404.625 C 716.688 403.388, 646.731 404.300, 610.500 406.091 M 791.500 447.016 C 774.450 447.425, 758.594 448.097, 756.265 448.510 C 751.564 449.342, 749.461 451.153, 750.388 453.570 C 750.919 454.952, 752.631 455.091, 763.250 454.615 C 769.988 454.313, 788.815 454.002, 805.090 453.924 C 828.451 453.813, 835.152 454.069, 836.923 455.142 C 840.890 457.544, 843.235 463.681, 843.740 472.982 C 844.323 483.702, 841.690 502.476, 839.110 506 L 837.280 508.500 797.673 508.600 C 757.228 508.702, 755 508.905, 755 512.501 C 755 515.430, 761.415 515.890, 813 516.657 C 881.978 517.682, 884.400 517.664, 899 515.992 C 905.875 515.205, 916 514.547, 921.500 514.531 L 931.500 514.500 932.186 529.500 C 933.544 559.222, 934.123 611.465, 933.111 612.960 C 932.263 614.213, 931.824 614.150, 930.025 612.522 C 927.301 610.057, 924.685 604.161, 920.032 590 C 914.904 574.393, 909.692 564.105, 903.378 557.128 C 894.585 547.412, 883.438 544.119, 876.749 549.262 C 864.693 558.532, 861.207 566.943, 853.946 604.292 C 852.320 612.657, 850.301 621.574, 849.461 624.109 C 847.563 629.834, 842.206 636.209, 836.467 639.572 C 830.191 643.250, 796.524 654.009, 775.500 659.055 C 760.259 662.713, 757.068 663.805, 754.683 666.178 C 752.674 668.176, 751.956 669.773, 752.183 671.740 C 752.458 674.139, 753.024 674.565, 756.500 675 C 762.290 675.724, 784.530 674.358, 798.820 672.401 C 816.922 669.922, 831.565 671.474, 836.483 676.393 C 838.185 678.094, 839.228 681.444, 840.894 690.560 C 844.382 709.633, 848.788 719.898, 857.337 728.867 C 865.888 737.839, 876.191 740.082, 889.277 735.823 C 895.047 733.945, 896.543 733.795, 899.348 734.809 C 903.758 736.403, 915.088 736.312, 929.042 734.569 C 989.126 727.062, 1046.107 723.630, 1139.500 721.890 C 1220.673 720.377, 1355.953 721.885, 1417.966 724.993 C 1435.861 725.890, 1441.224 725.493, 1438.012 723.507 C 1436.064 722.303, 1400.174 720.216, 1369.500 719.523 C 1353.550 719.162, 1331.950 718.433, 1321.500 717.903 C 1266.120 715.092, 1119.863 715.972, 1048.500 719.545 C 1006.254 721.661, 957.977 724.775, 941.500 726.448 C 933.800 727.230, 921.987 728.188, 915.250 728.576 C 905.024 729.167, 903 729.050, 903 727.869 C 903 727.091, 904.390 722.865, 906.090 718.477 C 911.740 703.888, 913.936 688.307, 914.094 661.686 C 914.195 644.686, 913.440 638.395, 909.482 623.289 C 906.487 611.860, 902.556 603.947, 896.559 597.277 C 890.532 590.573, 886.551 589.168, 881.250 591.873 C 873.333 595.912, 868.346 603.894, 864.488 618.706 C 862.299 627.111, 860.759 661.451, 861.896 676.500 C 863.359 695.870, 865.831 701.195, 874.144 702.896 C 876.955 703.471, 877.768 704.647, 883.068 715.808 L 888.899 728.088 886.200 729.157 C 876.963 732.815, 868.835 730.691, 861.206 722.625 C 854.313 715.336, 851.578 709.387, 848.569 695.137 C 845.122 678.809, 840.700 670.357, 834.339 667.939 C 831.072 666.697, 794.507 666.751, 780.180 668.019 C 773.651 668.597, 768.199 668.651, 767.298 668.147 C 766.117 667.486, 766.683 667.097, 769.618 666.555 C 775.279 665.510, 796.895 659.352, 804.741 656.549 C 808.459 655.221, 816.811 652.738, 823.303 651.030 C 851.321 643.658, 852.209 642.354, 863.935 591.311 C 870.071 564.598, 874.938 555.929, 884.605 554.490 C 889.227 553.803, 891.941 555.358, 897.744 562.016 C 905.890 571.365, 909.856 578.471, 912.895 589.164 C 918.474 608.800, 925.082 621, 930.137 621 C 931.097 621, 932.160 621.450, 932.500 622 C 933.805 624.112, 936.047 622.833, 938.197 618.750 C 940.351 614.660, 940.447 613.352, 940.732 584 C 940.898 566.912, 940.550 548.663, 939.940 542.500 C 939.341 536.450, 938.711 526.571, 938.541 520.548 C 938.247 510.156, 938.097 509.480, 935.614 507.344 C 933.055 505.143, 927.240 503.017, 923.750 503.006 C 922.788 503.003, 921.179 503.821, 920.176 504.824 C 918.254 506.746, 910.122 508.008, 886.869 509.994 C 875.410 510.973, 845.218 511.552, 844.474 510.807 C 844.264 510.597, 845.399 506.617, 846.996 501.963 C 851.771 488.048, 853.263 473.259, 850.926 463 C 848.525 452.454, 841.194 446.899, 829.143 446.495 C 825.489 446.372, 808.550 446.606, 791.500 447.016 M 444.251 464.536 C 441.990 466.120, 438 477.057, 438 481.671 C 438 484.682, 444.056 498.007, 446.239 499.798 C 447.109 500.513, 449.367 501.348, 451.255 501.654 C 455.744 502.382, 458.224 499.368, 459.993 491.035 C 462.094 481.132, 460.306 470.548, 455.635 465.250 C 453.267 462.564, 447.576 462.208, 444.251 464.536 M 766.608 468.329 C 762.085 469.694, 759.900 472.300, 761.739 474.139 C 762.664 475.064, 764.530 475.047, 770.027 474.064 C 777.580 472.715, 787.634 473.802, 793 476.550 C 797.473 478.840, 801.845 484.305, 802.869 488.889 C 804.122 494.497, 806.263 496.857, 808.450 495.042 C 811.707 492.338, 809.438 484.239, 803.418 477.084 C 796.744 469.153, 778.361 464.781, 766.608 468.329 M 447.402 473.750 C 444.769 479.158, 445.032 484.661, 448.175 489.881 L 450.813 494.262 452.419 491.156 C 453.303 489.448, 454.295 485.451, 454.625 482.275 C 455.150 477.227, 454.960 476.260, 453.113 474.595 C 451.951 473.547, 451 472.085, 451 471.345 C 451 468.814, 449.229 469.998, 447.402 473.750 M 563.500 506.515 C 553.600 507.254, 526.825 509.026, 504 510.453 C 440.530 514.423, 410.630 517.283, 392.515 521.118 C 382.102 523.323, 375 525.742, 375 527.084 C 375 528.057, 378.711 529.295, 379.741 528.665 C 380.158 528.410, 399.850 527.914, 423.500 527.563 C 447.150 527.213, 470.105 526.713, 474.510 526.454 C 485.151 525.827, 546.716 527.656, 560 528.993 C 565.775 529.574, 574.100 530.705, 578.500 531.505 C 586.388 532.939, 586.668 532.917, 598.429 529.982 C 609.693 527.171, 644.296 522.332, 670 519.974 C 693.674 517.801, 697.635 517.255, 700.458 515.776 C 703.275 514.300, 703.297 514.229, 701.273 513.146 C 698.764 511.803, 672.334 508.536, 651 506.932 C 627.655 505.176, 584.207 504.969, 563.500 506.515 M 366.500 549.122 C 361.939 551.933, 362.327 548.670, 360.055 603.337 C 358.949 629.958, 359.136 631.494, 363.623 632.620 C 365.034 632.974, 377.284 632.867, 390.844 632.382 C 404.405 631.897, 419.550 631.815, 424.500 632.199 C 444.015 633.716, 478.107 634.733, 489.323 634.133 L 501.147 633.500 504.957 629.413 C 509.786 624.235, 510.320 620.539, 509.136 600.500 C 508.447 588.830, 507.708 583.943, 505.808 578.488 C 501.120 565.028, 494.297 556.997, 483 551.643 C 478.700 549.605, 477.081 549.510, 446.500 549.502 C 428.900 549.498, 404.150 549.133, 391.500 548.692 C 373.854 548.077, 368.034 548.177, 366.500 549.122 M 547.154 552.531 C 539.762 555.741, 532.038 562.935, 528.935 569.500 C 526.250 575.180, 526.285 589.008, 529.004 596.775 C 531.680 604.417, 539.425 615.591, 544.267 618.795 C 548.918 621.873, 557.800 622.881, 563.549 620.984 C 571.862 618.240, 581.883 603.456, 582.783 592.608 C 583.748 580.965, 577.647 565.464, 569.060 557.744 C 561.922 551.326, 554.174 549.483, 547.154 552.531 M 368.097 554.383 C 366.959 555.754, 365.878 583.167, 365.786 613 L 365.744 626.500 368.122 626.298 C 375.184 625.697, 440.733 626.142, 465.622 626.959 C 481.505 627.481, 496.075 627.580, 498 627.178 C 503.782 625.973, 505.179 621.922, 504.443 608.500 C 502.773 578.056, 495.012 564.493, 475.555 558.018 C 469.808 556.106, 466.603 555.947, 427.946 555.666 C 405.151 555.501, 385.361 555.743, 383.969 556.204 C 382.205 556.789, 379.657 556.430, 375.562 555.021 C 368.585 552.621, 369.495 552.699, 368.097 554.383 M 321.020 561.562 C 313.085 569.131, 310.538 574.414, 311.378 581.560 C 313.282 597.763, 324.273 609.672, 335.397 607.585 C 343.629 606.041, 351.306 594.739, 351.212 584.303 C 351.117 573.706, 345.610 561.884, 339.270 558.666 C 337.746 557.892, 334.359 556.948, 331.741 556.567 C 326.995 555.877, 326.967 555.889, 321.020 561.562 M 542.995 563.193 C 537.053 567.924, 533.026 575.202, 533.010 581.238 C 533.004 583.294, 534.361 589.226, 536.025 594.421 C 538.591 602.429, 539.793 604.635, 543.935 608.932 C 548.616 613.789, 549.043 614, 554.198 614 C 563.011 614, 567.475 611.028, 572.220 602 C 575.840 595.115, 576.112 594.052, 575.548 589.038 C 574.141 576.542, 568.979 565.884, 562.102 561.277 C 559.648 559.632, 557.254 559, 553.483 559 C 548.855 559, 547.663 559.477, 542.995 563.193 M 324.941 566.703 C 320.839 570.155, 319 574.601, 319 581.067 C 319 587.705, 321.026 591.815, 327.099 597.496 L 332.022 602.100 335.153 600.300 C 342 596.363, 346.137 586.876, 344.594 578.650 C 343.643 573.578, 338.427 566.345, 334.812 565.084 C 330.150 563.459, 328.468 563.735, 324.941 566.703 M 382.038 579.455 C 379.317 582.733, 382.809 583.740, 399.300 584.432 C 424.351 585.484, 478.593 585.870, 479.990 585.006 C 480.706 584.564, 481.015 583.481, 480.677 582.601 C 480.214 581.394, 478.639 580.992, 474.281 580.967 C 471.102 580.949, 465.350 580.505, 461.500 579.979 C 457.650 579.454, 438.525 578.725, 419 578.359 C 385.848 577.737, 383.403 577.810, 382.038 579.455 M 879.479 602.362 C 873.071 607.968, 870.398 613.452, 867.859 626.199 C 866.083 635.119, 865.888 638.778, 866.405 653.500 C 867.370 680.999, 869.385 695, 872.378 695 C 875.336 695, 875.600 692.922, 874.253 680.246 C 873.508 673.236, 873.036 662.467, 873.204 656.317 C 873.464 646.823, 873.827 644.708, 875.605 642.317 C 880.228 636.103, 884.952 638.738, 888.167 649.325 C 889.977 655.283, 890.198 657.833, 889.688 666.897 C 889.069 677.892, 886.573 688.625, 883.045 695.461 C 881.920 697.640, 881 699.941, 881 700.573 C 881 702.466, 888.537 716.526, 891.627 720.400 C 893.207 722.380, 894.996 724, 895.602 724 C 897.615 724, 902.860 710.649, 905.032 700 C 907.537 687.714, 908.758 666.581, 907.879 650.713 C 907.195 638.363, 903.340 620.547, 899.889 613.782 C 897.121 608.357, 888.014 598, 886.010 598 C 885.161 598, 882.222 599.963, 879.479 602.362 M 410.798 601 C 388.026 601.525, 385.182 602.102, 388.092 605.614 C 389.389 607.179, 392.288 607.255, 425 606.587 C 458.642 605.900, 478.950 604.502, 481.766 602.681 C 482.463 602.230, 482.757 601.415, 482.419 600.869 C 481.809 599.882, 457.403 599.926, 410.798 601 M 656.665 615.376 C 642.274 621.468, 633.927 631.078, 627.591 648.851 C 623.952 659.059, 619 684.513, 619 693.013 C 619 709.447, 622.698 731.359, 628.671 750.323 C 634.058 767.422, 637.019 772.281, 646.205 779.092 C 650.460 782.247, 655.305 785.128, 656.971 785.494 C 660.988 786.376, 660.845 788, 656.750 788 C 649.748 787.999, 637.193 784.824, 629.308 781.059 C 611.799 772.699, 602.319 759.226, 596.440 734.343 C 593.516 721.968, 591.396 717.433, 586.545 713.174 C 579.172 706.700, 571.316 704.599, 548.786 703.078 C 540.929 702.547, 525.050 701.430, 513.500 700.596 C 501.950 699.761, 485.075 698.589, 476 697.990 C 466.925 697.391, 454.550 696.496, 448.500 696.002 C 435.584 694.945, 419.831 694.744, 417.582 695.607 C 415.452 696.424, 415.568 699.735, 417.750 700.393 C 418.713 700.684, 427.548 701.390, 437.384 701.962 C 458.440 703.187, 467.169 703.768, 483.804 705.051 C 490.572 705.573, 500.809 706, 506.554 706 C 512.299 706, 520.937 706.646, 525.750 707.436 C 530.562 708.226, 539.450 709.155, 545.500 709.501 C 562.063 710.447, 572.576 712.598, 578.846 716.324 C 585.352 720.189, 586.947 723.054, 591.016 738.184 C 596.360 758.051, 599.801 765.111, 609.768 776.656 C 614.860 782.555, 620.156 785.502, 635.524 790.989 C 644.018 794.022, 645.064 794.167, 655 793.688 C 666.600 793.129, 676.082 790.461, 688.382 784.293 C 705.473 775.723, 717.958 753.698, 723.126 723 C 724.914 712.381, 724.652 685.670, 722.644 673.763 C 717.782 644.948, 706.568 626.332, 688.774 617.538 C 682.204 614.291, 680.226 613.803, 671.916 613.383 C 663.518 612.957, 661.869 613.173, 656.665 615.376 M 661.286 621.451 C 651.003 624.664, 642.895 632.403, 636.402 645.200 C 633.504 650.910, 628.625 667.771, 626.910 678 C 622.240 705.841, 633.286 758.434, 646.691 772.188 C 652.787 778.444, 658.814 780.513, 670.677 780.423 C 684.103 780.321, 687.817 778.477, 697.828 766.943 C 707.216 756.126, 711.508 747.644, 714.701 733.598 C 722.273 700.283, 717.237 657.767, 703.509 639.120 C 698.805 632.729, 689.494 625.034, 682.780 621.986 C 677.732 619.696, 667.702 619.446, 661.286 621.451 M 878.975 650.565 C 877.762 653.756, 877.673 689, 878.879 689 C 882.928 689, 885.776 659.495, 882.487 651.622 C 880.687 647.316, 880.259 647.187, 878.975 650.565 M 289.578 651.750 C 288.108 653.211, 286 659.283, 286 662.057 C 286 668.800, 290.258 673.997, 295.789 674.006 C 297.830 674.009, 301.075 674.448, 303 674.982 C 306.399 675.924, 333.665 676.951, 409 678.973 C 487.235 681.072, 511.123 682.150, 564.624 685.990 C 581.601 687.209, 586.926 685.814, 589.585 679.452 C 591.541 674.770, 591.354 670.631, 589.095 668.586 C 585.304 665.155, 578.063 664, 554.061 662.997 C 541.102 662.456, 514.153 661.329, 494.174 660.492 C 474.195 659.656, 445.845 658.078, 431.174 656.985 C 365.819 652.119, 291.956 649.388, 289.578 651.750 M 659.468 658.950 C 656.938 659.976, 650.633 666.875, 648.557 670.891 C 644.151 679.409, 642.885 698.494, 644.953 725.197 C 646.530 745.553, 652.385 752.989, 662.654 747.679 C 679.009 739.221, 689.691 696.099, 680.819 674.345 C 675.605 661.559, 667.482 655.702, 659.468 658.950 M 660.509 665.985 C 656.345 668.729, 652.379 674.343, 650.405 680.286 C 646.842 691.013, 650.445 739.185, 655.021 742.013 C 656.732 743.070, 658.705 742.286, 663.263 738.739 C 668.169 734.922, 671.191 729.552, 674.654 718.500 C 677.180 710.438, 677.476 708.042, 677.487 695.500 C 677.498 683.347, 677.222 680.898, 675.390 676.939 C 673.297 672.416, 666.143 663.994, 664.405 664.007 C 663.907 664.010, 662.154 664.900, 660.509 665.985" stroke="none" fill="#000000" fill-rule="evenodd"/>
</svg>