<svg xmlns="http://www.w3.org/2000/svg" width="563" height="528" viewBox="0 0 563 528" version="1.1">
	<path d="M 253.742 14.997 C 193.829 19.650, 139.350 44.777, 96.651 87.452 C 57.376 126.704, 32.912 177.185, 25.871 233.500 C 24.243 246.528, 24.252 277.922, 25.888 290 C 33.452 345.847, 58.629 397.557, 96.950 435.952 C 145.010 484.104, 206.791 510, 273.606 510 C 316.888 510, 351.029 502.135, 387.233 483.824 C 411.358 471.623, 428.790 459.097, 448.860 439.542 C 490.813 398.666, 516.051 348.483, 523.563 291 C 525.818 273.748, 525.104 238.567, 522.153 221.500 C 517.638 195.384, 510.820 174.402, 499.571 152 C 467.543 88.220, 409.340 40.653, 342.247 23.424 C 316.662 16.854, 277.658 13.140, 253.742 14.997 M 182 113.615 C 174.370 114.549, 158.286 118.300, 151.581 120.709 C 128.914 128.853, 108.543 143.989, 101.612 157.836 C 93.289 174.463, 89.626 200.466, 93.508 215.368 C 96.887 228.342, 98.946 231.175, 120.494 252.500 C 145.985 277.726, 151.197 284.191, 174.349 319.301 C 191.539 345.370, 201.557 354.578, 214.032 355.777 C 220.158 356.366, 224.870 354.751, 230.872 350.007 C 243.346 340.147, 250.878 320.940, 259.601 276.742 C 261.095 269.175, 262.526 263.192, 262.781 263.447 C 263.036 263.703, 263.527 273.494, 263.872 285.206 L 264.500 306.500 270.832 307.004 C 274.315 307.281, 281.965 307.176, 287.832 306.770 C 293.700 306.365, 303.543 305.983, 309.706 305.922 C 326.805 305.751, 328.467 306.531, 343.816 321.930 C 354.438 332.587, 357.821 335.332, 364.627 338.815 C 374.976 344.110, 390.833 349.422, 403 351.669 C 414.770 353.842, 441.293 354.189, 444.750 352.215 C 449.424 349.545, 447.592 347.796, 435.070 342.967 C 430.612 341.247, 425.622 338.712, 423.982 337.332 C 421.224 335.010, 421 334.323, 420.995 328.161 C 420.982 313, 413.474 273.100, 405.346 245.003 C 390.126 192.394, 368.219 153.502, 342.121 132.763 C 319.372 114.685, 293.043 109.903, 261.047 118.037 L 248.595 121.203 241.047 119.161 C 226.582 115.249, 216.554 113.833, 201 113.509 C 192.475 113.331, 183.925 113.379, 182 113.615 M 313.596 217.050 C 305.114 224.497, 307.053 236.563, 317.363 240.501 C 326.105 243.840, 334.865 238.463, 335.754 229.212 C 336.623 220.163, 330.972 214.011, 321.785 214.004 C 317.951 214.001, 316.420 214.570, 313.596 217.050 M 360.647 363.242 C 362.457 373.557, 362.338 394.439, 360.416 403.792 C 355.834 426.084, 342.717 441.858, 330.644 439.593 C 323.385 438.231, 322.441 432.622, 327.472 420.750 C 328.062 419.358, 327.713 419, 325.766 419 C 324.419 419, 321.109 418.332, 318.409 417.516 L 313.500 416.031 310.273 419.766 C 299.954 431.705, 299.374 445.067, 308.700 455.963 C 316.005 464.497, 324.751 468, 338.752 468 C 349.281 468, 359.212 465.303, 368.749 459.853 C 391.164 447.046, 410.624 410.343, 418.378 366.250 L 418.950 363 407.225 362.982 C 392.042 362.958, 375.085 360.561, 360.937 356.439 C 359.539 356.032, 359.508 356.752, 360.647 363.242" stroke="none" fill="#000000" fill-rule="evenodd"/>
</svg>