<svg xmlns="http://www.w3.org/2000/svg" width="1024" height="1024" viewBox="0 0 1024 1024" version="1.1">
	<path d="M 476.500 188.556 C 458.447 190.575, 449.119 192.427, 431.394 197.515 C 381.522 211.829, 337.445 237.379, 302.995 271.946 C 275.579 299.456, 260.440 321.084, 242.412 358.500 C 234.431 375.066, 229.029 390.571, 223.079 414 C 212.326 456.341, 212.507 510.403, 223.547 553.473 C 238.299 611.026, 264.190 657.121, 304.485 697.573 C 318.166 711.307, 324.564 716.921, 325.358 715.885 C 325.520 715.673, 331.738 707.850, 339.175 698.500 C 365.323 665.626, 378.249 645.986, 393.242 616.347 C 404.912 593.278, 410.358 579.697, 416.960 557.200 C 424.964 529.925, 429.254 512.205, 437.465 472.500 C 445.995 431.253, 450.573 415.724, 459.870 396.500 C 466.285 383.233, 471.481 374.687, 476.525 369.104 L 479.853 365.421 474.894 363.146 C 463.781 358.048, 449.023 340.126, 442.310 323.578 C 438.628 314.501, 438.298 311.844, 440.571 309.571 C 443.970 306.173, 459.903 308.632, 477 315.192 C 482.775 317.408, 490.855 320.511, 494.956 322.086 C 502.571 325.013, 503.946 324.842, 503.985 320.961 C 503.993 320.115, 504.881 317.694, 505.958 315.581 C 507.783 312.003, 507.809 311.531, 506.334 308.679 C 502.307 300.892, 499.838 291.294, 499.282 281.273 C 498.612 269.181, 498.778 268.995, 507.529 272.020 C 510.813 273.155, 517.008 274.358, 521.296 274.694 C 530.389 275.405, 529.147 273.939, 535.962 291.997 C 546.097 318.853, 550.992 324.225, 572.845 332.475 C 576.884 334, 582.959 337.104, 586.345 339.374 C 591.876 343.082, 593.700 345.316, 604.343 361.415 C 618.154 382.309, 624.149 388.585, 643.500 402.405 C 658.559 413.161, 663.982 419.197, 670.704 432.686 C 678.595 448.521, 677.734 455.528, 667.267 460.668 C 661.997 463.256, 660.553 463.500, 650.500 463.500 C 640.274 463.500, 639.043 463.282, 633 460.409 C 629.425 458.709, 624.030 455.203, 621.011 452.617 C 617.500 449.610, 613.717 447.418, 610.511 446.530 C 605.327 445.096, 584.626 443.520, 556 442.382 C 545.701 441.972, 536.681 441.047, 532 439.919 C 524.641 438.147, 524.422 438.151, 520.343 440.101 C 517.715 441.357, 515.630 443.268, 514.676 445.294 C 510.250 454.689, 502.722 510.141, 496.526 579 C 493.259 615.298, 486.284 656.522, 478.083 688 C 474.717 700.920, 457.993 751.087, 452.561 764.556 C 450.611 769.392, 449.163 773.497, 449.344 773.677 C 450.325 774.659, 481.495 779.233, 493.500 780.157 C 510.475 781.464, 541.836 780.648, 555.500 778.543 C 587.012 773.688, 621.654 762.458, 650.156 747.857 C 661.729 741.929, 682.908 728.109, 696 717.943 C 732.063 689.940, 768.371 641.464, 786.466 597.162 C 795.997 573.825, 803.348 548.649, 806.620 528.136 C 808.675 515.251, 809.498 477.286, 808.140 458 C 806.653 436.868, 803.742 420.737, 797.909 401.294 C 791.383 379.544, 787.335 369.296, 778.637 352.500 C 756.440 309.642, 725.687 272.306, 692.104 247.449 C 650.302 216.507, 606.830 197.775, 559.581 190.346 C 539.031 187.115, 497.409 186.218, 476.500 188.556" stroke="none" fill="#000000" fill-rule="evenodd"/>
</svg>