<svg xmlns="http://www.w3.org/2000/svg" width="1024" height="1024" viewBox="0 0 1024 1024" version="1.1">
	<path d="M 484.500 155.044 C 448.998 158.586, 409.381 168.558, 377.626 181.945 C 256.608 232.962, 176.073 348.729, 170.148 480.189 C 168.125 525.058, 173.927 565.958, 188.490 609.500 C 194.762 628.253, 203.667 648.935, 205.826 649.763 C 207.950 650.578, 218.856 638.824, 225.659 628.386 C 236.110 612.353, 243.010 594.429, 249.481 566.500 C 261.423 514.954, 266.278 498.522, 275.939 476.941 C 280.452 466.859, 280.690 465.962, 278.690 466.583 C 274.194 467.980, 261.202 474.963, 256.682 478.413 C 252.930 481.277, 252 481.640, 252.001 480.243 C 252.004 476.017, 258.311 442.475, 261.009 432.336 C 266.776 410.672, 274.304 393.381, 285.103 377 C 292.852 365.245, 308.600 349.282, 319.500 342.132 C 328.942 335.939, 351.888 324.555, 364.250 319.930 C 369.063 318.129, 373 316.333, 373 315.937 C 373 315.542, 367.821 313.515, 361.491 311.433 L 349.983 307.647 352.241 305.237 C 360.051 296.904, 378.824 286.242, 391.308 283.049 C 412.373 277.662, 439.110 277.828, 460.928 283.481 C 470.661 286.003, 470.846 285.593, 464.291 276 C 461.097 271.325, 457.244 265.875, 455.728 263.888 L 452.973 260.276 457.626 259.638 C 471.483 257.739, 501.840 259.499, 524 263.486 C 548.096 267.822, 564.849 273.654, 577.398 282.076 C 586.064 287.893, 589.783 291.687, 594.472 299.500 C 600.813 310.066, 602.196 316.212, 602.797 336.500 L 603.330 354.500 613.915 359.698 C 632.357 368.755, 651.604 382.726, 659.566 392.836 C 662.020 395.951, 667.340 405.289, 671.388 413.586 L 678.748 428.672 701.624 446.578 C 742.253 478.379, 760.303 494.005, 763.584 500.220 C 764.943 502.793, 764.874 503.037, 762.305 504.720 C 760.064 506.189, 756.871 506.560, 744.044 506.842 C 735.495 507.030, 728.124 507.540, 727.665 507.977 C 726.443 509.138, 729.276 513.961, 733.668 518.195 C 738.513 522.867, 745.278 525.950, 750.750 525.978 C 753.087 525.990, 755 526.252, 755 526.560 C 755 527.686, 745.999 549.059, 743.150 554.698 C 741.538 557.889, 739.382 561.234, 738.359 562.131 C 734.916 565.151, 698.549 572.200, 674.809 574.450 C 663.261 575.544, 660.424 576.131, 658.788 577.768 C 657.208 579.347, 657.018 580.165, 657.861 581.741 C 659.588 584.967, 664.776 586.510, 673.500 586.393 C 682.662 586.270, 686.748 585.515, 711.268 579.418 C 721.041 576.988, 729.897 575, 730.947 575 C 732.467 575, 733.104 576.176, 734.061 580.750 C 737.083 595.198, 728.708 616.178, 712.205 635.500 C 706.785 641.846, 693.196 653.976, 691.489 653.991 C 690.933 653.996, 688.458 651.458, 685.989 648.351 C 680.238 641.115, 667.935 630.437, 656.608 622.852 C 639.981 611.718, 623.240 604.948, 586.240 594.396 C 575.647 591.375, 563.947 587.763, 560.240 586.370 C 527.440 574.044, 513.125 553.228, 503.096 503.277 C 501.588 495.765, 499.867 489.456, 499.271 489.257 C 497.572 488.691, 496.493 504.101, 496.560 528 C 496.631 553.748, 497.711 558.886, 506.967 577.500 C 514.654 592.958, 523.520 604.606, 544.276 626.513 C 567.216 650.725, 572.927 658.410, 579.178 673.476 C 587.679 693.964, 589.630 720.298, 584.620 746.927 L 583.384 753.500 579.084 745 C 572.920 732.818, 564.660 720.868, 556.149 711.820 C 549.151 704.381, 543.291 699.349, 542.548 700.141 C 542.363 700.338, 543.269 705.185, 544.563 710.911 C 549.398 732.318, 550.022 753.873, 546.417 775 C 543.382 792.783, 534.006 817.819, 524.547 833.400 C 522.578 836.644, 521.186 839.519, 521.455 839.788 C 522.177 840.511, 547.409 838.209, 563.618 835.942 C 623.423 827.578, 683.920 800.256, 732 759.897 C 746.257 747.930, 768.957 724.817, 779.666 711.365 C 820.439 660.150, 845.119 600.400, 853.134 533.500 C 855.064 517.386, 854.810 474.963, 852.680 457.696 C 843.164 380.577, 810.740 312.764, 757.017 257.627 C 702.162 201.327, 635.177 167.792, 554.944 156.462 C 541.481 154.561, 498.093 153.687, 484.500 155.044 M 477 341.078 C 469.459 342.517, 457.999 348.940, 454.314 353.792 C 447.197 363.163, 444.658 382.666, 449.032 394.357 C 452.997 404.954, 457.860 409.480, 477.121 420.500 C 481.025 422.734, 482.651 424.368, 483.488 426.899 L 484.611 430.298 488.134 425.399 C 492.594 419.198, 496.337 412.990, 495.864 412.577 C 495.664 412.402, 493.420 411.352, 490.878 410.242 C 485.460 407.878, 478.658 402.003, 475.443 396.909 C 471.743 391.049, 470 383.475, 470 373.263 L 470 363.890 475.346 361.526 C 486.689 356.509, 501.578 355.779, 515.811 359.542 C 519.283 360.460, 522.364 360.969, 522.659 360.675 C 523.680 359.653, 519.813 354.485, 515.667 351.330 C 503.428 342.020, 490.302 338.539, 477 341.078 M 622.500 428.064 C 612.214 428.772, 601.989 430.653, 602.015 431.833 C 602.044 433.149, 613.636 441.104, 620.500 444.517 C 627.179 447.838, 650.637 454.696, 651.696 453.637 C 652.407 452.926, 640.561 435.831, 636.157 431.212 L 632.500 427.376 622.500 428.064" stroke="none" fill="#000000" fill-rule="evenodd"/>
</svg>